{
  "accessors": [
    {
      "bufferView": 0,
      "componentType": 5126,
      "count": 792,
      "type": "VEC3",
      "max": [
        28.543506622314453,
        91.7503433227539,
        13.088113784790039
      ],
      "min": [
        -28.543506622314453,
        0.12540435791015625,
        -13.088108062744141
      ]
    },
    {
      "bufferView": 1,
      "componentType": 5126,
      "count": 792,
      "type": "VEC3",
      "max": [
        1.0,
        1.0,
        1.0
      ],
      "min": [
        -1.0,
        -1.0,
        -1.0
      ]
    },
    {
      "bufferView": 2,
      "componentType": 5126,
      "count": 792,
      "type": "VEC4",
      "max": [
        1.0,
        1.0,
        1.0,
        1.0
      ],
      "min": [
        -1.0,
        -1.0,
        -1.0,
        -1.0
      ]
    },
    {
      "bufferView": 3,
      "componentType": 5126,
      "count": 792,
      "type": "VEC2",
      "max": [
        0.62457728385925293,
        0.74976897239685059
      ],
      "min": [
        0.50082767009735107,
        0.625163197517395
      ]
    },
    {
      "bufferView": 4,
      "componentType": 5125,
      "count": 1914,
      "type": "SCALAR",
      "max": [
        791.0
      ],
      "min": [
        0.0
      ]
    }
  ],
  "asset": {
    "generator": "UnityGLTF (2019.1.4f1)",
    "version": "2.0"
  },
  "buffers": [
    {
      "uri": "FirePlace_01.bin",
      "byteLength": 45672
    }
  ],
  "bufferViews": [
    {
      "buffer": 0,
      "byteLength": 9504
    },
    {
      "buffer": 0,
      "byteOffset": 9504,
      "byteLength": 9504
    },
    {
      "buffer": 0,
      "byteOffset": 19008,
      "byteLength": 12672
    },
    {
      "buffer": 0,
      "byteOffset": 31680,
      "byteLength": 6336
    },
    {
      "buffer": 0,
      "byteOffset": 38016,
      "byteLength": 7656
    }
  ],
  "images": [
    {
      "uri": "../../10916_Farm_Interior.png",
      "name": "Farm_Interior"
    }
  ],
  "materials": [
    {
      "pbrMetallicRoughness": {
        "baseColorTexture": {
          "index": 0
        },
        "metallicFactor": 0.0,
        "roughnessFactor": 0.5
      },
      "name": "Farm_Interior 1"
    }
  ],
  "meshes": [
    {
      "primitives": [
        {
          "attributes": {
            "POSITION": 0,
            "NORMAL": 1,
            "TANGENT": 2,
            "TEXCOORD_0": 3
          },
          "indices": 4,
          "material": 0
        }
      ],
      "name": "FirePlace_01"
    }
  ],
  "nodes": [
    {
      "mesh": 0,
      "rotation": [
        2.18556941E-08,
        0.0,
        0.0,
        -1.0
      ],
      "translation": [
        1.68141222,
        0.07536602,
        1.49662066
      ],
      "name": "FirePlace_01"
    }
  ],
  "samplers": [
    {
      "minFilter": 9729
    }
  ],
  "scene": 0,
  "scenes": [
    {
      "nodes": [
        0
      ],
      "name": "FirePlace_01"
    }
  ],
  "textures": [
    {
      "sampler": 0,
      "source": 0,
      "name": "Farm_Interior"
    }
  ]
}