{
  "accessors": [
    {
      "bufferView": 0,
      "componentType": 5126,
      "count": 288,
      "type": "VEC3",
      "max": [
        0.24049443006515503,
        0.17577534914016724,
        0.1706884354352951
      ],
      "min": [
        -0.24049443006515503,
        0.0018613399006426334,
        -0.23116821050643921
      ]
    },
    {
      "bufferView": 1,
      "componentType": 5126,
      "count": 288,
      "type": "VEC3",
      "max": [
        0.99841094017028809,
        1.0,
        0.98324280977249146
      ],
      "min": [
        -0.99841094017028809,
        -1.0,
        -0.98324280977249146
      ]
    },
    {
      "bufferView": 2,
      "componentType": 5126,
      "count": 288,
      "type": "VEC4",
      "max": [
        0.7341495156288147,
        0.94433987140655518,
        1.0,
        1.0
      ],
      "min": [
        -0.98591041564941406,
        -0.92887020111083984,
        -1.0,
        -1.0
      ]
    },
    {
      "bufferView": 3,
      "componentType": 5126,
      "count": 288,
      "type": "VEC2",
      "max": [
        0.53040498495101929,
        0.53034001588821411
      ],
      "min": [
        0.0091620003804564476,
        0.0056300000287592411
      ]
    },
    {
      "bufferView": 4,
      "componentType": 5125,
      "count": 1044,
      "type": "SCALAR",
      "max": [
        287.0
      ],
      "min": [
        0.0
      ]
    }
  ],
  "asset": {
    "generator": "UnityGLTF (2019.1.4f1)",
    "version": "2.0"
  },
  "buffers": [
    {
      "uri": "SM_Pan_01.bin",
      "byteLength": 18000
    }
  ],
  "bufferViews": [
    {
      "buffer": 0,
      "byteLength": 3456
    },
    {
      "buffer": 0,
      "byteOffset": 3456,
      "byteLength": 3456
    },
    {
      "buffer": 0,
      "byteOffset": 6912,
      "byteLength": 4608
    },
    {
      "buffer": 0,
      "byteOffset": 11520,
      "byteLength": 2304
    },
    {
      "buffer": 0,
      "byteOffset": 13824,
      "byteLength": 4176
    }
  ],
  "images": [
    {
      "uri": "../../11094_T_Dishes.jpg",
      "name": "T_Dishes"
    }
  ],
  "materials": [
    {
      "pbrMetallicRoughness": {
        "baseColorTexture": {
          "index": 0
        },
        "metallicFactor": 0.0,
        "roughnessFactor": 0.5
      },
      "name": "T_Dishes"
    }
  ],
  "meshes": [
    {
      "primitives": [
        {
          "attributes": {
            "POSITION": 0,
            "NORMAL": 1,
            "TANGENT": 2,
            "TEXCOORD_0": 3
          },
          "indices": 4,
          "material": 0
        }
      ],
      "name": "SM_Pan_01"
    }
  ],
  "nodes": [
    {
      "mesh": 0,
      "rotation": [
        0.0,
        0.0,
        0.0,
        -1.0
      ],
      "name": "SM_Pan_01"
    }
  ],
  "samplers": [
    {
      "minFilter": 9729
    }
  ],
  "scene": 0,
  "scenes": [
    {
      "nodes": [
        0
      ],
      "name": "SM_Pan_01"
    }
  ],
  "textures": [
    {
      "sampler": 0,
      "source": 0,
      "name": "T_Dishes"
    }
  ]
}