{
  "accessors": [
    {
      "bufferView": 0,
      "componentType": 5126,
      "count": 1772,
      "type": "VEC3",
      "max": [
        20.573062896728516,
        26.886463165283203,
        6.6821646690368652
      ],
      "min": [
        -23.445133209228516,
        -57.571258544921875,
        -23.768989562988281
      ]
    },
    {
      "bufferView": 1,
      "componentType": 5126,
      "count": 1772,
      "type": "VEC3",
      "max": [
        1.0,
        1.0,
        1.0
      ],
      "min": [
        -1.0,
        -1.0,
        -1.0
      ]
    },
    {
      "bufferView": 2,
      "componentType": 5126,
      "count": 1772,
      "type": "VEC4",
      "max": [
        1.0,
        1.0,
        1.0,
        1.0
      ],
      "min": [
        -1.0,
        -1.0,
        -1.0,
        -1.0
      ]
    },
    {
      "bufferView": 3,
      "componentType": 5126,
      "count": 1772,
      "type": "VEC2",
      "max": [
        0.624966561794281,
        0.62394607067108154
      ],
      "min": [
        0.5011400580406189,
        0.50090336799621582
      ]
    },
    {
      "bufferView": 4,
      "componentType": 5125,
      "count": 4464,
      "type": "SCALAR",
      "max": [
        1771.0
      ],
      "min": [
        0.0
      ]
    }
  ],
  "asset": {
    "generator": "UnityGLTF (2019.1.4f1)",
    "version": "2.0"
  },
  "buffers": [
    {
      "uri": "Kitchen_Cupborad_02.bin",
      "byteLength": 102912
    }
  ],
  "bufferViews": [
    {
      "buffer": 0,
      "byteLength": 21264
    },
    {
      "buffer": 0,
      "byteOffset": 21264,
      "byteLength": 21264
    },
    {
      "buffer": 0,
      "byteOffset": 42528,
      "byteLength": 28352
    },
    {
      "buffer": 0,
      "byteOffset": 70880,
      "byteLength": 14176
    },
    {
      "buffer": 0,
      "byteOffset": 85056,
      "byteLength": 17856
    }
  ],
  "images": [
    {
      "uri": "../../10916_Farm_Interior.png",
      "name": "Farm_Interior"
    }
  ],
  "materials": [
    {
      "pbrMetallicRoughness": {
        "baseColorTexture": {
          "index": 0
        },
        "metallicFactor": 0.0,
        "roughnessFactor": 0.5
      },
      "name": "Farm_Interior 1"
    }
  ],
  "meshes": [
    {
      "primitives": [
        {
          "attributes": {
            "POSITION": 0,
            "NORMAL": 1,
            "TANGENT": 2,
            "TEXCOORD_0": 3
          },
          "indices": 4,
          "material": 0
        }
      ],
      "name": "Kitchen_Cupborad_02"
    }
  ],
  "nodes": [
    {
      "mesh": 0,
      "rotation": [
        2.18556941E-08,
        0.0,
        0.0,
        -1.0
      ],
      "translation": [
        1.68141222,
        0.07536602,
        1.49662066
      ],
      "name": "Kitchen_Cupborad_02"
    }
  ],
  "samplers": [
    {
      "minFilter": 9729
    }
  ],
  "scene": 0,
  "scenes": [
    {
      "nodes": [
        0
      ],
      "name": "Kitchen_Cupborad_02"
    }
  ],
  "textures": [
    {
      "sampler": 0,
      "source": 0,
      "name": "Farm_Interior"
    }
  ]
}