{
  "accessors": [
    {
      "bufferView": 0,
      "componentType": 5126,
      "count": 952,
      "type": "VEC3",
      "max": [
        24.502620697021484,
        57.876594543457031,
        15.433675765991211
      ],
      "min": [
        -24.433971405029297,
        -0.040601730346679688,
        -15.450109481811523
      ]
    },
    {
      "bufferView": 1,
      "componentType": 5126,
      "count": 952,
      "type": "VEC3",
      "max": [
        1.0,
        1.0,
        1.0
      ],
      "min": [
        -1.0,
        -1.0,
        -1.0
      ]
    },
    {
      "bufferView": 2,
      "componentType": 5126,
      "count": 952,
      "type": "VEC4",
      "max": [
        1.0,
        1.0,
        1.0,
        1.0
      ],
      "min": [
        -1.0,
        -0.025285845622420311,
        -1.0,
        -1.0
      ]
    },
    {
      "bufferView": 3,
      "componentType": 5126,
      "count": 952,
      "type": "VEC2",
      "max": [
        0.24920971691608429,
        0.87443393468856812
      ],
      "min": [
        0.12649083137512207,
        0.75107717514038086
      ]
    },
    {
      "bufferView": 4,
      "componentType": 5125,
      "count": 2100,
      "type": "SCALAR",
      "max": [
        951.0
      ],
      "min": [
        0.0
      ]
    }
  ],
  "asset": {
    "generator": "UnityGLTF (2019.1.4f1)",
    "version": "2.0"
  },
  "buffers": [
    {
      "uri": "Cabinet_04.bin",
      "byteLength": 54096
    }
  ],
  "bufferViews": [
    {
      "buffer": 0,
      "byteLength": 11424
    },
    {
      "buffer": 0,
      "byteOffset": 11424,
      "byteLength": 11424
    },
    {
      "buffer": 0,
      "byteOffset": 22848,
      "byteLength": 15232
    },
    {
      "buffer": 0,
      "byteOffset": 38080,
      "byteLength": 7616
    },
    {
      "buffer": 0,
      "byteOffset": 45696,
      "byteLength": 8400
    }
  ],
  "images": [
    {
      "uri": "../../10916_Farm_Interior.png",
      "name": "Farm_Interior"
    }
  ],
  "materials": [
    {
      "pbrMetallicRoughness": {
        "baseColorTexture": {
          "index": 0
        },
        "metallicFactor": 0.0,
        "roughnessFactor": 0.5
      },
      "name": "Farm_Interior 1"
    }
  ],
  "meshes": [
    {
      "primitives": [
        {
          "attributes": {
            "POSITION": 0,
            "NORMAL": 1,
            "TANGENT": 2,
            "TEXCOORD_0": 3
          },
          "indices": 4,
          "material": 0
        }
      ],
      "name": "Cabinet_04"
    }
  ],
  "nodes": [
    {
      "mesh": 0,
      "rotation": [
        2.18556941E-08,
        0.0,
        0.0,
        -1.0
      ],
      "translation": [
        1.68141222,
        0.07536602,
        1.49662066
      ],
      "name": "Cabinet_04"
    }
  ],
  "samplers": [
    {
      "minFilter": 9729
    }
  ],
  "scene": 0,
  "scenes": [
    {
      "nodes": [
        0
      ],
      "name": "Cabinet_04"
    }
  ],
  "textures": [
    {
      "sampler": 0,
      "source": 0,
      "name": "Farm_Interior"
    }
  ]
}