{
  "accessors": [
    {
      "bufferView": 0,
      "componentType": 5126,
      "count": 1334,
      "type": "VEC3",
      "max": [
        30.949226379394531,
        59.689414978027344,
        6.8913359642028809
      ],
      "min": [
        -31.049270629882813,
        -0.1177215576171875,
        -6.1447000503540039
      ]
    },
    {
      "bufferView": 1,
      "componentType": 5126,
      "count": 1334,
      "type": "VEC3",
      "max": [
        1.0,
        1.0,
        1.0
      ],
      "min": [
        -1.0,
        -1.0,
        -1.0
      ]
    },
    {
      "bufferView": 2,
      "componentType": 5126,
      "count": 1334,
      "type": "VEC4",
      "max": [
        1.0,
        1.0,
        1.0,
        1.0
      ],
      "min": [
        -1.0,
        -0.88719427585601807,
        -1.0,
        -1.0
      ]
    },
    {
      "bufferView": 3,
      "componentType": 5126,
      "count": 1334,
      "type": "VEC2",
      "max": [
        0.749251127243042,
        0.998571515083313
      ],
      "min": [
        0.45064353942871094,
        0.876332700252533
      ]
    },
    {
      "bufferView": 4,
      "componentType": 5125,
      "count": 3060,
      "type": "SCALAR",
      "max": [
        1333.0
      ],
      "min": [
        0.0
      ]
    }
  ],
  "asset": {
    "generator": "UnityGLTF (2019.1.4f1)",
    "version": "2.0"
  },
  "buffers": [
    {
      "uri": "Bookcase_03.bin",
      "byteLength": 76272
    }
  ],
  "bufferViews": [
    {
      "buffer": 0,
      "byteLength": 16008
    },
    {
      "buffer": 0,
      "byteOffset": 16008,
      "byteLength": 16008
    },
    {
      "buffer": 0,
      "byteOffset": 32016,
      "byteLength": 21344
    },
    {
      "buffer": 0,
      "byteOffset": 53360,
      "byteLength": 10672
    },
    {
      "buffer": 0,
      "byteOffset": 64032,
      "byteLength": 12240
    }
  ],
  "images": [
    {
      "uri": "../../10916_Farm_Interior.png",
      "name": "Farm_Interior"
    }
  ],
  "materials": [
    {
      "pbrMetallicRoughness": {
        "baseColorTexture": {
          "index": 0
        },
        "metallicFactor": 0.0,
        "roughnessFactor": 0.5
      },
      "name": "Farm_Interior 1"
    }
  ],
  "meshes": [
    {
      "primitives": [
        {
          "attributes": {
            "POSITION": 0,
            "NORMAL": 1,
            "TANGENT": 2,
            "TEXCOORD_0": 3
          },
          "indices": 4,
          "material": 0
        }
      ],
      "name": "Bookcase_03"
    }
  ],
  "nodes": [
    {
      "mesh": 0,
      "rotation": [
        2.18556941E-08,
        0.0,
        0.0,
        -1.0
      ],
      "translation": [
        1.68141222,
        0.07536602,
        1.49662066
      ],
      "name": "Bookcase_03"
    }
  ],
  "samplers": [
    {
      "minFilter": 9729
    }
  ],
  "scene": 0,
  "scenes": [
    {
      "nodes": [
        0
      ],
      "name": "Bookcase_03"
    }
  ],
  "textures": [
    {
      "sampler": 0,
      "source": 0,
      "name": "Farm_Interior"
    }
  ]
}