{
  "accessors": [
    {
      "bufferView": 0,
      "componentType": 5126,
      "count": 2418,
      "type": "VEC3",
      "max": [
        29.787252426147461,
        69.314582824707031,
        21.665609359741211
      ],
      "min": [
        -31.980709075927734,
        -0.030644416809082031,
        -18.829841613769531
      ]
    },
    {
      "bufferView": 1,
      "componentType": 5126,
      "count": 2418,
      "type": "VEC3",
      "max": [
        1.0,
        1.0,
        1.0
      ],
      "min": [
        -1.0,
        -1.0,
        -1.0
      ]
    },
    {
      "bufferView": 2,
      "componentType": 5126,
      "count": 2418,
      "type": "VEC4",
      "max": [
        1.0,
        1.0,
        1.0,
        1.0
      ],
      "min": [
        -1.0,
        -1.0,
        -1.0,
        -1.0
      ]
    },
    {
      "bufferView": 3,
      "componentType": 5126,
      "count": 2418,
      "type": "VEC2",
      "max": [
        0.74920535087585449,
        0.74914425611495972
      ],
      "min": [
        0.62607622146606445,
        0.62568187713623047
      ]
    },
    {
      "bufferView": 4,
      "componentType": 5125,
      "count": 7632,
      "type": "SCALAR",
      "max": [
        2417.0
      ],
      "min": [
        0.0
      ]
    }
  ],
  "asset": {
    "generator": "UnityGLTF (2019.1.4f1)",
    "version": "2.0"
  },
  "buffers": [
    {
      "uri": "FirePlace_02.bin",
      "byteLength": 146592
    }
  ],
  "bufferViews": [
    {
      "buffer": 0,
      "byteLength": 29016
    },
    {
      "buffer": 0,
      "byteOffset": 29016,
      "byteLength": 29016
    },
    {
      "buffer": 0,
      "byteOffset": 58032,
      "byteLength": 38688
    },
    {
      "buffer": 0,
      "byteOffset": 96720,
      "byteLength": 19344
    },
    {
      "buffer": 0,
      "byteOffset": 116064,
      "byteLength": 30528
    }
  ],
  "images": [
    {
      "uri": "../../10916_Farm_Interior.png",
      "name": "Farm_Interior"
    }
  ],
  "materials": [
    {
      "pbrMetallicRoughness": {
        "baseColorTexture": {
          "index": 0
        },
        "metallicFactor": 0.0,
        "roughnessFactor": 0.5
      },
      "name": "Farm_Interior 1"
    }
  ],
  "meshes": [
    {
      "primitives": [
        {
          "attributes": {
            "POSITION": 0,
            "NORMAL": 1,
            "TANGENT": 2,
            "TEXCOORD_0": 3
          },
          "indices": 4,
          "material": 0
        }
      ],
      "name": "FirePlace_02"
    }
  ],
  "nodes": [
    {
      "mesh": 0,
      "rotation": [
        2.18556941E-08,
        0.0,
        0.0,
        -1.0
      ],
      "translation": [
        1.68141222,
        0.07536602,
        1.49662066
      ],
      "name": "FirePlace_02"
    }
  ],
  "samplers": [
    {
      "minFilter": 9729
    }
  ],
  "scene": 0,
  "scenes": [
    {
      "nodes": [
        0
      ],
      "name": "FirePlace_02"
    }
  ],
  "textures": [
    {
      "sampler": 0,
      "source": 0,
      "name": "Farm_Interior"
    }
  ]
}