{
    "asset" : {
        "generator" : "Khronos glTF Blender I/O v0.9.35",
        "version" : "2.0"
    },
    "scene" : 0,
    "scenes" : [
        {
            "name" : "Scene",
            "nodes" : [
                0
            ]
        }
    ],
    "nodes" : [
        {
            "mesh" : 0,
            "name" : "Plane.007",
            "rotation" : [
                0,
                0.7071067690849304,
                0,
                0.7071067690849304
            ],
            "scale" : [
                -1,
                1,
                1
            ],
            "translation" : [
                0.9000000953674316,
                0,
                -0.9999995231628418
            ]
        }
    ],
    "materials" : [
        {
            "doubleSided" : true,
            "name" : "WallBeige",
            "pbrMetallicRoughness" : {}
        },
        {
            "doubleSided" : true,
            "name" : "WallBricks",
            "pbrMetallicRoughness" : {}
        }
    ],
    "meshes" : [
        {
            "name" : "Plane.025",
            "primitives" : [
                {
                    "attributes" : {
                        "POSITION" : 0,
                        "NORMAL" : 1,
                        "TEXCOORD_0" : 2,
                        "TEXCOORD_1" : 3
                    },
                    "indices" : 4,
                    "material" : 0
                },
                {
                    "attributes" : {
                        "POSITION" : 5,
                        "NORMAL" : 6,
                        "TEXCOORD_0" : 7,
                        "TEXCOORD_1" : 8
                    },
                    "indices" : 9,
                    "material" : 1
                }
            ]
        }
    ],
    "accessors" : [
        {
            "bufferView" : 0,
            "componentType" : 5126,
            "count" : 50,
            "max" : [
                1.9999995231628418,
                5,
                0.10000026226043701
            ],
            "min" : [
                -2.2709693908691406,
                0,
                -0.1709691286087036
            ],
            "type" : "VEC3"
        },
        {
            "bufferView" : 1,
            "componentType" : 5126,
            "count" : 50,
            "type" : "VEC3"
        },
        {
            "bufferView" : 2,
            "componentType" : 5126,
            "count" : 50,
            "type" : "VEC2"
        },
        {
            "bufferView" : 3,
            "componentType" : 5126,
            "count" : 50,
            "type" : "VEC2"
        },
        {
            "bufferView" : 4,
            "componentType" : 5123,
            "count" : 72,
            "type" : "SCALAR"
        },
        {
            "bufferView" : 5,
            "componentType" : 5126,
            "count" : 4,
            "max" : [
                1.9999995231628418,
                1.8178542852401733,
                0.10000011324882507
            ],
            "min" : [
                -1.9999998807907104,
                0,
                0.09999990463256836
            ],
            "type" : "VEC3"
        },
        {
            "bufferView" : 6,
            "componentType" : 5126,
            "count" : 4,
            "type" : "VEC3"
        },
        {
            "bufferView" : 7,
            "componentType" : 5126,
            "count" : 4,
            "type" : "VEC2"
        },
        {
            "bufferView" : 8,
            "componentType" : 5126,
            "count" : 4,
            "type" : "VEC2"
        },
        {
            "bufferView" : 9,
            "componentType" : 5123,
            "count" : 6,
            "type" : "SCALAR"
        }
    ],
    "bufferViews" : [
        {
            "buffer" : 0,
            "byteLength" : 600,
            "byteOffset" : 0
        },
        {
            "buffer" : 0,
            "byteLength" : 600,
            "byteOffset" : 600
        },
        {
            "buffer" : 0,
            "byteLength" : 400,
            "byteOffset" : 1200
        },
        {
            "buffer" : 0,
            "byteLength" : 400,
            "byteOffset" : 1600
        },
        {
            "buffer" : 0,
            "byteLength" : 144,
            "byteOffset" : 2000
        },
        {
            "buffer" : 0,
            "byteLength" : 48,
            "byteOffset" : 2144
        },
        {
            "buffer" : 0,
            "byteLength" : 48,
            "byteOffset" : 2192
        },
        {
            "buffer" : 0,
            "byteLength" : 32,
            "byteOffset" : 2240
        },
        {
            "buffer" : 0,
            "byteLength" : 32,
            "byteOffset" : 2272
        },
        {
            "buffer" : 0,
            "byteLength" : 12,
            "byteOffset" : 2304
        }
    ],
    "buffers" : [
        {
            "byteLength" : 2316,
            "uri" : "wall1.bin"
        }
    ]
}
