{
  "accessors": [
    {
      "bufferView": 0,
      "componentType": 5126,
      "count": 1143,
      "type": "VEC3",
      "max": [
        78.523475646972656,
        98.663444519042969,
        17.051599502563477
      ],
      "min": [
        -26.599594116210938,
        -0.1695709228515625,
        -39.185813903808594
      ]
    },
    {
      "bufferView": 1,
      "componentType": 5126,
      "count": 1143,
      "type": "VEC3",
      "max": [
        1.0,
        1.0,
        1.0
      ],
      "min": [
        -1.0,
        -1.0,
        -1.0
      ]
    },
    {
      "bufferView": 2,
      "componentType": 5126,
      "count": 1143,
      "type": "VEC4",
      "max": [
        1.0,
        1.0,
        1.0,
        1.0
      ],
      "min": [
        -1.0,
        -1.0,
        -1.0,
        -1.0
      ]
    },
    {
      "bufferView": 3,
      "componentType": 5126,
      "count": 1143,
      "type": "VEC2",
      "max": [
        0.49936473369598389,
        0.37428471446037292
      ],
      "min": [
        0.37614163756370544,
        0.25090470910072327
      ]
    },
    {
      "bufferView": 4,
      "componentType": 5125,
      "count": 2952,
      "type": "SCALAR",
      "max": [
        1142.0
      ],
      "min": [
        0.0
      ]
    }
  ],
  "asset": {
    "generator": "UnityGLTF (2019.1.4f1)",
    "version": "2.0"
  },
  "buffers": [
    {
      "uri": "Mirror2.bin",
      "byteLength": 66672
    }
  ],
  "bufferViews": [
    {
      "buffer": 0,
      "byteLength": 13716
    },
    {
      "buffer": 0,
      "byteOffset": 13716,
      "byteLength": 13716
    },
    {
      "buffer": 0,
      "byteOffset": 27432,
      "byteLength": 18288
    },
    {
      "buffer": 0,
      "byteOffset": 45720,
      "byteLength": 9144
    },
    {
      "buffer": 0,
      "byteOffset": 54864,
      "byteLength": 11808
    }
  ],
  "images": [
    {
      "uri": "../../10916_Farm_Interior.png",
      "name": "Farm_Interior"
    }
  ],
  "materials": [
    {
      "pbrMetallicRoughness": {
        "baseColorTexture": {
          "index": 0
        },
        "metallicFactor": 0.0,
        "roughnessFactor": 0.5
      },
      "name": "Farm_Interior 1"
    }
  ],
  "meshes": [
    {
      "primitives": [
        {
          "attributes": {
            "POSITION": 0,
            "NORMAL": 1,
            "TANGENT": 2,
            "TEXCOORD_0": 3
          },
          "indices": 4,
          "material": 0
        }
      ],
      "name": "Mirror2"
    }
  ],
  "nodes": [
    {
      "mesh": 0,
      "rotation": [
        2.18556941E-08,
        0.0,
        0.0,
        -1.0
      ],
      "translation": [
        1.68141222,
        0.07536602,
        1.49662066
      ],
      "name": "Mirror2"
    }
  ],
  "samplers": [
    {
      "minFilter": 9729
    }
  ],
  "scene": 0,
  "scenes": [
    {
      "nodes": [
        0
      ],
      "name": "Mirror2"
    }
  ],
  "textures": [
    {
      "sampler": 0,
      "source": 0,
      "name": "Farm_Interior"
    }
  ]
}