{
  "accessors": [
    {
      "bufferView": 0,
      "componentType": 5126,
      "count": 20,
      "type": "VEC3",
      "max": [
        53.608272552490234,
        0.1792982816696167,
        53.608272552490234
      ],
      "min": [
        -53.608272552490234,
        -0.17929834127426147,
        -53.608272552490234
      ]
    },
    {
      "bufferView": 1,
      "componentType": 5126,
      "count": 20,
      "type": "VEC3",
      "max": [
        1.0,
        1.0,
        1.0
      ],
      "min": [
        -1.0,
        0.0,
        -1.0
      ]
    },
    {
      "bufferView": 2,
      "componentType": 5126,
      "count": 20,
      "type": "VEC4",
      "max": [
        0.0,
        0.920024037361145,
        0.39351218938827515,
        -1.0
      ],
      "min": [
        -1.0,
        -0.91992908716201782,
        -0.39423999190330505,
        -1.0
      ]
    },
    {
      "bufferView": 3,
      "componentType": 5126,
      "count": 20,
      "type": "VEC2",
      "max": [
        0.74954253435134888,
        0.87469935417175293
      ],
      "min": [
        0.62526631355285645,
        0.75042307376861572
      ]
    },
    {
      "bufferView": 4,
      "componentType": 5125,
      "count": 30,
      "type": "SCALAR",
      "max": [
        19.0
      ],
      "min": [
        0.0
      ]
    }
  ],
  "asset": {
    "generator": "UnityGLTF (2019.1.4f1)",
    "version": "2.0"
  },
  "buffers": [
    {
      "uri": "Carpet_03.bin",
      "byteLength": 1080
    }
  ],
  "bufferViews": [
    {
      "buffer": 0,
      "byteLength": 240
    },
    {
      "buffer": 0,
      "byteOffset": 240,
      "byteLength": 240
    },
    {
      "buffer": 0,
      "byteOffset": 480,
      "byteLength": 320
    },
    {
      "buffer": 0,
      "byteOffset": 800,
      "byteLength": 160
    },
    {
      "buffer": 0,
      "byteOffset": 960,
      "byteLength": 120
    }
  ],
  "images": [
    {
      "uri": "../../10916_Farm_Interior.png",
      "name": "Farm_Interior"
    }
  ],
  "materials": [
    {
      "pbrMetallicRoughness": {
        "baseColorTexture": {
          "index": 0
        },
        "metallicFactor": 0.0,
        "roughnessFactor": 0.5
      },
      "name": "Farm_Interior 1"
    }
  ],
  "meshes": [
    {
      "primitives": [
        {
          "attributes": {
            "POSITION": 0,
            "NORMAL": 1,
            "TANGENT": 2,
            "TEXCOORD_0": 3
          },
          "indices": 4,
          "material": 0
        }
      ],
      "name": "Carpet_03"
    }
  ],
  "nodes": [
    {
      "mesh": 0,
      "rotation": [
        2.18556941E-08,
        0.0,
        0.0,
        -1.0
      ],
      "translation": [
        1.68141222,
        0.07536602,
        1.49662066
      ],
      "name": "Carpet_03"
    }
  ],
  "samplers": [
    {
      "minFilter": 9729
    }
  ],
  "scene": 0,
  "scenes": [
    {
      "nodes": [
        0
      ],
      "name": "Carpet_03"
    }
  ],
  "textures": [
    {
      "sampler": 0,
      "source": 0,
      "name": "Farm_Interior"
    }
  ]
}