{
  "accessors": [
    {
      "bufferView": 0,
      "componentType": 5126,
      "count": 690,
      "type": "VEC3",
      "max": [
        28.998800277709961,
        81.455276489257813,
        14.660078048706055
      ],
      "min": [
        -28.998811721801758,
        -0.12564754486083984,
        -14.657445907592773
      ]
    },
    {
      "bufferView": 1,
      "componentType": 5126,
      "count": 690,
      "type": "VEC3",
      "max": [
        1.0,
        1.0,
        1.0
      ],
      "min": [
        -1.0,
        -1.0,
        -1.0
      ]
    },
    {
      "bufferView": 2,
      "componentType": 5126,
      "count": 690,
      "type": "VEC4",
      "max": [
        1.0,
        1.0,
        1.0,
        1.0
      ],
      "min": [
        -1.0,
        -1.0,
        -1.0,
        -1.0
      ]
    },
    {
      "bufferView": 3,
      "componentType": 5126,
      "count": 690,
      "type": "VEC2",
      "max": [
        0.8735729455947876,
        0.99662560224533081
      ],
      "min": [
        0.75146943330764771,
        0.87591725587844849
      ]
    },
    {
      "bufferView": 4,
      "componentType": 5125,
      "count": 1932,
      "type": "SCALAR",
      "max": [
        689.0
      ],
      "min": [
        0.0
      ]
    }
  ],
  "asset": {
    "generator": "UnityGLTF (2019.1.4f1)",
    "version": "2.0"
  },
  "buffers": [
    {
      "uri": "Cabinet01.bin",
      "byteLength": 40848
    }
  ],
  "bufferViews": [
    {
      "buffer": 0,
      "byteLength": 8280
    },
    {
      "buffer": 0,
      "byteOffset": 8280,
      "byteLength": 8280
    },
    {
      "buffer": 0,
      "byteOffset": 16560,
      "byteLength": 11040
    },
    {
      "buffer": 0,
      "byteOffset": 27600,
      "byteLength": 5520
    },
    {
      "buffer": 0,
      "byteOffset": 33120,
      "byteLength": 7728
    }
  ],
  "images": [
    {
      "uri": "../../10916_Farm_Interior.png",
      "name": "Farm_Interior"
    }
  ],
  "materials": [
    {
      "pbrMetallicRoughness": {
        "baseColorTexture": {
          "index": 0
        },
        "metallicFactor": 0.0,
        "roughnessFactor": 0.5
      },
      "name": "Farm_Interior 1"
    }
  ],
  "meshes": [
    {
      "primitives": [
        {
          "attributes": {
            "POSITION": 0,
            "NORMAL": 1,
            "TANGENT": 2,
            "TEXCOORD_0": 3
          },
          "indices": 4,
          "material": 0
        }
      ],
      "name": "Cabinet01"
    }
  ],
  "nodes": [
    {
      "mesh": 0,
      "rotation": [
        2.18556941E-08,
        0.0,
        0.0,
        -1.0
      ],
      "translation": [
        1.68141222,
        0.07536602,
        1.49662066
      ],
      "name": "Cabinet01"
    }
  ],
  "samplers": [
    {
      "minFilter": 9729
    }
  ],
  "scene": 0,
  "scenes": [
    {
      "nodes": [
        0
      ],
      "name": "Cabinet01"
    }
  ],
  "textures": [
    {
      "sampler": 0,
      "source": 0,
      "name": "Farm_Interior"
    }
  ]
}