{
  "accessors": [
    {
      "bufferView": 0,
      "componentType": 5126,
      "count": 1360,
      "type": "VEC3",
      "max": [
        22.382253646850586,
        79.5589370727539,
        13.82176685333252
      ],
      "min": [
        -22.384235382080078,
        0.2559661865234375,
        -8.0701360702514648
      ]
    },
    {
      "bufferView": 1,
      "componentType": 5126,
      "count": 1360,
      "type": "VEC3",
      "max": [
        1.0,
        1.0,
        1.0
      ],
      "min": [
        -1.0,
        -1.0,
        -1.0
      ]
    },
    {
      "bufferView": 2,
      "componentType": 5126,
      "count": 1360,
      "type": "VEC4",
      "max": [
        1.0,
        1.0,
        1.0,
        1.0
      ],
      "min": [
        -1.0,
        -1.0,
        -1.0,
        -1.0
      ]
    },
    {
      "bufferView": 3,
      "componentType": 5126,
      "count": 1360,
      "type": "VEC2",
      "max": [
        0.62423807382583618,
        0.99936884641647339
      ],
      "min": [
        0.45064353942871094,
        0.8751370906829834
      ]
    },
    {
      "bufferView": 4,
      "componentType": 5125,
      "count": 3072,
      "type": "SCALAR",
      "max": [
        1359.0
      ],
      "min": [
        0.0
      ]
    }
  ],
  "asset": {
    "generator": "UnityGLTF (2019.1.4f1)",
    "version": "2.0"
  },
  "buffers": [
    {
      "uri": "Bookcase_02.bin",
      "byteLength": 77568
    }
  ],
  "bufferViews": [
    {
      "buffer": 0,
      "byteLength": 16320
    },
    {
      "buffer": 0,
      "byteOffset": 16320,
      "byteLength": 16320
    },
    {
      "buffer": 0,
      "byteOffset": 32640,
      "byteLength": 21760
    },
    {
      "buffer": 0,
      "byteOffset": 54400,
      "byteLength": 10880
    },
    {
      "buffer": 0,
      "byteOffset": 65280,
      "byteLength": 12288
    }
  ],
  "images": [
    {
      "uri": "../../10916_Farm_Interior.png",
      "name": "Farm_Interior"
    }
  ],
  "materials": [
    {
      "pbrMetallicRoughness": {
        "baseColorTexture": {
          "index": 0
        },
        "metallicFactor": 0.0,
        "roughnessFactor": 0.5
      },
      "name": "Farm_Interior 1"
    }
  ],
  "meshes": [
    {
      "primitives": [
        {
          "attributes": {
            "POSITION": 0,
            "NORMAL": 1,
            "TANGENT": 2,
            "TEXCOORD_0": 3
          },
          "indices": 4,
          "material": 0
        }
      ],
      "name": "Bookcase_02"
    }
  ],
  "nodes": [
    {
      "mesh": 0,
      "rotation": [
        2.18556941E-08,
        0.0,
        0.0,
        -1.0
      ],
      "translation": [
        1.68141222,
        0.07536602,
        1.49662066
      ],
      "name": "Bookcase_02"
    }
  ],
  "samplers": [
    {
      "minFilter": 9729
    }
  ],
  "scene": 0,
  "scenes": [
    {
      "nodes": [
        0
      ],
      "name": "Bookcase_02"
    }
  ],
  "textures": [
    {
      "sampler": 0,
      "source": 0,
      "name": "Farm_Interior"
    }
  ]
}