{
  "accessors": [
    {
      "bufferView": 0,
      "componentType": 5126,
      "count": 568,
      "type": "VEC3",
      "max": [
        10.7982177734375,
        19.606781005859375,
        4.6186227798461914
      ],
      "min": [
        -10.863945007324219,
        -25.148048400878906,
        -2.8801298141479492
      ]
    },
    {
      "bufferView": 1,
      "componentType": 5126,
      "count": 568,
      "type": "VEC3",
      "max": [
        1.0,
        1.0,
        1.0
      ],
      "min": [
        -1.0,
        -1.0,
        -1.0
      ]
    },
    {
      "bufferView": 2,
      "componentType": 5126,
      "count": 568,
      "type": "VEC4",
      "max": [
        1.0,
        1.0,
        1.0,
        1.0
      ],
      "min": [
        -1.0,
        -1.0,
        -1.0,
        -1.0
      ]
    },
    {
      "bufferView": 3,
      "componentType": 5126,
      "count": 568,
      "type": "VEC2",
      "max": [
        0.12485975027084351,
        0.74813938140869141
      ],
      "min": [
        0.0016557096969336271,
        0.62577956914901733
      ]
    },
    {
      "bufferView": 4,
      "componentType": 5125,
      "count": 1248,
      "type": "SCALAR",
      "max": [
        567.0
      ],
      "min": [
        0.0
      ]
    }
  ],
  "asset": {
    "generator": "UnityGLTF (2019.1.4f1)",
    "version": "2.0"
  },
  "buffers": [
    {
      "uri": "Clock_03.bin",
      "byteLength": 32256
    }
  ],
  "bufferViews": [
    {
      "buffer": 0,
      "byteLength": 6816
    },
    {
      "buffer": 0,
      "byteOffset": 6816,
      "byteLength": 6816
    },
    {
      "buffer": 0,
      "byteOffset": 13632,
      "byteLength": 9088
    },
    {
      "buffer": 0,
      "byteOffset": 22720,
      "byteLength": 4544
    },
    {
      "buffer": 0,
      "byteOffset": 27264,
      "byteLength": 4992
    }
  ],
  "images": [
    {
      "uri": "../../10916_Farm_Interior.png",
      "name": "Farm_Interior"
    }
  ],
  "materials": [
    {
      "pbrMetallicRoughness": {
        "baseColorTexture": {
          "index": 0
        },
        "metallicFactor": 0.0,
        "roughnessFactor": 0.5
      },
      "name": "Farm_Interior 1"
    }
  ],
  "meshes": [
    {
      "primitives": [
        {
          "attributes": {
            "POSITION": 0,
            "NORMAL": 1,
            "TANGENT": 2,
            "TEXCOORD_0": 3
          },
          "indices": 4,
          "material": 0
        }
      ],
      "name": "Clock_03"
    }
  ],
  "nodes": [
    {
      "mesh": 0,
      "rotation": [
        2.18556941E-08,
        0.0,
        0.0,
        -1.0
      ],
      "translation": [
        1.68141222,
        0.07536602,
        1.49662066
      ],
      "name": "Clock_03"
    }
  ],
  "samplers": [
    {
      "minFilter": 9729
    }
  ],
  "scene": 0,
  "scenes": [
    {
      "nodes": [
        0
      ],
      "name": "Clock_03"
    }
  ],
  "textures": [
    {
      "sampler": 0,
      "source": 0,
      "name": "Farm_Interior"
    }
  ]
}