{
  "accessors": [
    {
      "bufferView": 0,
      "componentType": 5126,
      "count": 426,
      "type": "VEC3",
      "max": [
        16.430438995361328,
        50.019702911376953,
        14.773868560791016
      ],
      "min": [
        -16.430421829223633,
        0.037977218627929688,
        -14.773818016052246
      ]
    },
    {
      "bufferView": 1,
      "componentType": 5126,
      "count": 426,
      "type": "VEC3",
      "max": [
        1.0,
        0.9928775429725647,
        1.0
      ],
      "min": [
        -1.0,
        -0.99287682771682739,
        -1.0
      ]
    },
    {
      "bufferView": 2,
      "componentType": 5126,
      "count": 426,
      "type": "VEC4",
      "max": [
        1.0,
        0.74505645036697388,
        1.0,
        1.0
      ],
      "min": [
        -1.0,
        -1.0,
        -1.0,
        -1.0
      ]
    },
    {
      "bufferView": 3,
      "componentType": 5126,
      "count": 426,
      "type": "VEC2",
      "max": [
        0.24846848845481873,
        0.62391567230224609
      ],
      "min": [
        0.16856452822685242,
        0.50093173980712891
      ]
    },
    {
      "bufferView": 4,
      "componentType": 5125,
      "count": 1632,
      "type": "SCALAR",
      "max": [
        425.0
      ],
      "min": [
        0.0
      ]
    }
  ],
  "asset": {
    "generator": "UnityGLTF (2019.1.4f1)",
    "version": "2.0"
  },
  "buffers": [
    {
      "uri": "Fridge_03.bin",
      "byteLength": 26976
    }
  ],
  "bufferViews": [
    {
      "buffer": 0,
      "byteLength": 5112
    },
    {
      "buffer": 0,
      "byteOffset": 5112,
      "byteLength": 5112
    },
    {
      "buffer": 0,
      "byteOffset": 10224,
      "byteLength": 6816
    },
    {
      "buffer": 0,
      "byteOffset": 17040,
      "byteLength": 3408
    },
    {
      "buffer": 0,
      "byteOffset": 20448,
      "byteLength": 6528
    }
  ],
  "images": [
    {
      "uri": "../../10916_Farm_Interior.png",
      "name": "Farm_Interior"
    }
  ],
  "materials": [
    {
      "pbrMetallicRoughness": {
        "baseColorTexture": {
          "index": 0
        },
        "metallicFactor": 0.0,
        "roughnessFactor": 0.5
      },
      "name": "Farm_Interior 1"
    }
  ],
  "meshes": [
    {
      "primitives": [
        {
          "attributes": {
            "POSITION": 0,
            "NORMAL": 1,
            "TANGENT": 2,
            "TEXCOORD_0": 3
          },
          "indices": 4,
          "material": 0
        }
      ],
      "name": "Fridge_03"
    }
  ],
  "nodes": [
    {
      "mesh": 0,
      "rotation": [
        2.18556941E-08,
        0.0,
        0.0,
        -1.0
      ],
      "translation": [
        1.68141222,
        0.07536602,
        1.49662066
      ],
      "name": "Fridge_03"
    }
  ],
  "samplers": [
    {
      "minFilter": 9729
    }
  ],
  "scene": 0,
  "scenes": [
    {
      "nodes": [
        0
      ],
      "name": "Fridge_03"
    }
  ],
  "textures": [
    {
      "sampler": 0,
      "source": 0,
      "name": "Farm_Interior"
    }
  ]
}