{
  "accessors": [
    {
      "bufferView": 0,
      "componentType": 5126,
      "count": 640,
      "type": "VEC3",
      "max": [
        34.612953186035156,
        46.561489105224609,
        51.482917785644531
      ],
      "min": [
        -34.612968444824219,
        -0.46562576293945313,
        -51.482917785644531
      ]
    },
    {
      "bufferView": 1,
      "componentType": 5126,
      "count": 640,
      "type": "VEC3",
      "max": [
        1.0,
        1.0,
        1.0
      ],
      "min": [
        -1.0,
        -0.97731369733810425,
        -1.0
      ]
    },
    {
      "bufferView": 2,
      "componentType": 5126,
      "count": 640,
      "type": "VEC4",
      "max": [
        1.0,
        1.0,
        1.0,
        1.0
      ],
      "min": [
        -1.0,
        -0.99626213312149048,
        -1.0,
        -1.0
      ]
    },
    {
      "bufferView": 3,
      "componentType": 5126,
      "count": 640,
      "type": "VEC2",
      "max": [
        0.24924786388874054,
        0.99877059459686279
      ],
      "min": [
        0.12617722153663635,
        0.87601286172866821
      ]
    },
    {
      "bufferView": 4,
      "componentType": 5125,
      "count": 1836,
      "type": "SCALAR",
      "max": [
        639.0
      ],
      "min": [
        0.0
      ]
    }
  ],
  "asset": {
    "generator": "UnityGLTF (2019.1.4f1)",
    "version": "2.0"
  },
  "buffers": [
    {
      "uri": "Bed02.bin",
      "byteLength": 38064
    }
  ],
  "bufferViews": [
    {
      "buffer": 0,
      "byteLength": 7680
    },
    {
      "buffer": 0,
      "byteOffset": 7680,
      "byteLength": 7680
    },
    {
      "buffer": 0,
      "byteOffset": 15360,
      "byteLength": 10240
    },
    {
      "buffer": 0,
      "byteOffset": 25600,
      "byteLength": 5120
    },
    {
      "buffer": 0,
      "byteOffset": 30720,
      "byteLength": 7344
    }
  ],
  "images": [
    {
      "uri": "../../10916_Farm_Interior.png",
      "name": "Farm_Interior"
    }
  ],
  "materials": [
    {
      "pbrMetallicRoughness": {
        "baseColorTexture": {
          "index": 0
        },
        "metallicFactor": 0.0,
        "roughnessFactor": 0.5
      },
      "name": "Farm_Interior 1"
    }
  ],
  "meshes": [
    {
      "primitives": [
        {
          "attributes": {
            "POSITION": 0,
            "NORMAL": 1,
            "TANGENT": 2,
            "TEXCOORD_0": 3
          },
          "indices": 4,
          "material": 0
        }
      ],
      "name": "Bed02"
    }
  ],
  "nodes": [
    {
      "mesh": 0,
      "rotation": [
        2.18556941E-08,
        0.0,
        0.0,
        -1.0
      ],
      "translation": [
        1.68141222,
        0.07536602,
        1.49662066
      ],
      "name": "Bed02"
    }
  ],
  "samplers": [
    {
      "minFilter": 9729
    }
  ],
  "scene": 0,
  "scenes": [
    {
      "nodes": [
        0
      ],
      "name": "Bed02"
    }
  ],
  "textures": [
    {
      "sampler": 0,
      "source": 0,
      "name": "Farm_Interior"
    }
  ]
}