{
  "accessors": [
    {
      "bufferView": 0,
      "componentType": 5126,
      "count": 68,
      "type": "VEC3",
      "max": [
        18.336288452148438,
        22.599052429199219,
        3.0229635238647461
      ],
      "min": [
        -18.336227416992188,
        -22.599058151245117,
        -3.0229735374450684
      ]
    },
    {
      "bufferView": 1,
      "componentType": 5126,
      "count": 68,
      "type": "VEC3",
      "max": [
        1.0,
        1.0,
        1.0
      ],
      "min": [
        -1.0,
        -1.0,
        -1.0
      ]
    },
    {
      "bufferView": 2,
      "componentType": 5126,
      "count": 68,
      "type": "VEC4",
      "max": [
        0.83580201864242554,
        0.84439682960510254,
        1.0,
        1.0
      ],
      "min": [
        -1.0,
        -0.84439694881439209,
        -1.0,
        -1.0
      ]
    },
    {
      "bufferView": 3,
      "componentType": 5126,
      "count": 68,
      "type": "VEC2",
      "max": [
        0.48398181796073914,
        0.747066080570221
      ],
      "min": [
        0.44328579306602478,
        0.62549865245819092
      ]
    },
    {
      "bufferView": 4,
      "componentType": 5125,
      "count": 108,
      "type": "SCALAR",
      "max": [
        67.0
      ],
      "min": [
        0.0
      ]
    }
  ],
  "asset": {
    "generator": "UnityGLTF (2019.1.4f1)",
    "version": "2.0"
  },
  "buffers": [
    {
      "uri": "Windown.bin",
      "byteLength": 3696
    }
  ],
  "bufferViews": [
    {
      "buffer": 0,
      "byteLength": 816
    },
    {
      "buffer": 0,
      "byteOffset": 816,
      "byteLength": 816
    },
    {
      "buffer": 0,
      "byteOffset": 1632,
      "byteLength": 1088
    },
    {
      "buffer": 0,
      "byteOffset": 2720,
      "byteLength": 544
    },
    {
      "buffer": 0,
      "byteOffset": 3264,
      "byteLength": 432
    }
  ],
  "images": [
    {
      "uri": "../../10916_Farm_Interior.png",
      "name": "Farm_Interior"
    }
  ],
  "materials": [
    {
      "pbrMetallicRoughness": {
        "baseColorTexture": {
          "index": 0
        },
        "metallicFactor": 0.0,
        "roughnessFactor": 0.5
      },
      "name": "Farm_Interior 3"
    }
  ],
  "meshes": [
    {
      "primitives": [
        {
          "attributes": {
            "POSITION": 0,
            "NORMAL": 1,
            "TANGENT": 2,
            "TEXCOORD_0": 3
          },
          "indices": 4,
          "material": 0
        }
      ],
      "name": "Windown"
    }
  ],
  "nodes": [
    {
      "mesh": 0,
      "rotation": [
        2.18556941E-08,
        0.0,
        0.0,
        -1.0
      ],
      "translation": [
        1.68141222,
        0.07536602,
        1.49662066
      ],
      "name": "Windown"
    }
  ],
  "samplers": [
    {
      "minFilter": 9729
    }
  ],
  "scene": 0,
  "scenes": [
    {
      "nodes": [
        0
      ],
      "name": "Windown"
    }
  ],
  "textures": [
    {
      "sampler": 0,
      "source": 0,
      "name": "Farm_Interior"
    }
  ]
}