{
  "accessors": [
    {
      "bufferView": 0,
      "componentType": 5126,
      "count": 1324,
      "type": "VEC3",
      "max": [
        65.532958984375,
        48.602085113525391,
        41.099700927734375
      ],
      "min": [
        -20.473739624023438,
        0.019611358642578125,
        -44.948509216308594
      ]
    },
    {
      "bufferView": 1,
      "componentType": 5126,
      "count": 1324,
      "type": "VEC3",
      "max": [
        1.0,
        1.0,
        1.0
      ],
      "min": [
        -1.0,
        -1.0,
        -1.0
      ]
    },
    {
      "bufferView": 2,
      "componentType": 5126,
      "count": 1324,
      "type": "VEC4",
      "max": [
        1.0,
        0.51487118005752563,
        1.0,
        1.0
      ],
      "min": [
        -1.0,
        -1.0,
        -1.0,
        -1.0
      ]
    },
    {
      "bufferView": 3,
      "componentType": 5126,
      "count": 1324,
      "type": "VEC2",
      "max": [
        0.23676411807537079,
        0.49861413240432739
      ],
      "min": [
        0.0014964491128921509,
        0.2865179181098938
      ]
    },
    {
      "bufferView": 4,
      "componentType": 5125,
      "count": 3948,
      "type": "SCALAR",
      "max": [
        1323.0
      ],
      "min": [
        0.0
      ]
    }
  ],
  "asset": {
    "generator": "UnityGLTF (2019.1.4f1)",
    "version": "2.0"
  },
  "buffers": [
    {
      "uri": "Kitchen_Cabinet_02.bin",
      "byteLength": 79344
    }
  ],
  "bufferViews": [
    {
      "buffer": 0,
      "byteLength": 15888
    },
    {
      "buffer": 0,
      "byteOffset": 15888,
      "byteLength": 15888
    },
    {
      "buffer": 0,
      "byteOffset": 31776,
      "byteLength": 21184
    },
    {
      "buffer": 0,
      "byteOffset": 52960,
      "byteLength": 10592
    },
    {
      "buffer": 0,
      "byteOffset": 63552,
      "byteLength": 15792
    }
  ],
  "images": [
    {
      "uri": "../../10916_Farm_Interior.png",
      "name": "Farm_Interior"
    }
  ],
  "materials": [
    {
      "pbrMetallicRoughness": {
        "baseColorTexture": {
          "index": 0
        },
        "metallicFactor": 0.0,
        "roughnessFactor": 0.5
      },
      "name": "Farm_Interior 1"
    }
  ],
  "meshes": [
    {
      "primitives": [
        {
          "attributes": {
            "POSITION": 0,
            "NORMAL": 1,
            "TANGENT": 2,
            "TEXCOORD_0": 3
          },
          "indices": 4,
          "material": 0
        }
      ],
      "name": "Kitchen_Cabinet_02"
    }
  ],
  "nodes": [
    {
      "mesh": 0,
      "rotation": [
        2.18556941E-08,
        0.0,
        0.0,
        -1.0
      ],
      "translation": [
        1.68141222,
        0.07536602,
        1.49662066
      ],
      "name": "Kitchen_Cabinet_02"
    }
  ],
  "samplers": [
    {
      "minFilter": 9729
    }
  ],
  "scene": 0,
  "scenes": [
    {
      "nodes": [
        0
      ],
      "name": "Kitchen_Cabinet_02"
    }
  ],
  "textures": [
    {
      "sampler": 0,
      "source": 0,
      "name": "Farm_Interior"
    }
  ]
}