{
  "accessors": [
    {
      "bufferView": 0,
      "componentType": 5126,
      "count": 812,
      "type": "VEC3",
      "max": [
        17.534194946289063,
        35.379795074462891,
        7.8410463333129883
      ],
      "min": [
        -17.534217834472656,
        0.013387680053710938,
        -7.8409891128540039
      ]
    },
    {
      "bufferView": 1,
      "componentType": 5126,
      "count": 812,
      "type": "VEC3",
      "max": [
        1.0,
        1.0,
        1.0
      ],
      "min": [
        -1.0,
        -1.0,
        -1.0
      ]
    },
    {
      "bufferView": 2,
      "componentType": 5126,
      "count": 812,
      "type": "VEC4",
      "max": [
        1.0,
        1.0,
        1.0,
        1.0
      ],
      "min": [
        -1.0,
        -1.0,
        -1.0,
        -1.0
      ]
    },
    {
      "bufferView": 3,
      "componentType": 5126,
      "count": 812,
      "type": "VEC2",
      "max": [
        0.24968130886554718,
        0.74871206283569336
      ],
      "min": [
        0.15601074695587158,
        0.625510036945343
      ]
    },
    {
      "bufferView": 4,
      "componentType": 5125,
      "count": 1494,
      "type": "SCALAR",
      "max": [
        811.0
      ],
      "min": [
        0.0
      ]
    }
  ],
  "asset": {
    "generator": "UnityGLTF (2019.1.4f1)",
    "version": "2.0"
  },
  "buffers": [
    {
      "uri": "Clock_05.bin",
      "byteLength": 44952
    }
  ],
  "bufferViews": [
    {
      "buffer": 0,
      "byteLength": 9744
    },
    {
      "buffer": 0,
      "byteOffset": 9744,
      "byteLength": 9744
    },
    {
      "buffer": 0,
      "byteOffset": 19488,
      "byteLength": 12992
    },
    {
      "buffer": 0,
      "byteOffset": 32480,
      "byteLength": 6496
    },
    {
      "buffer": 0,
      "byteOffset": 38976,
      "byteLength": 5976
    }
  ],
  "images": [
    {
      "uri": "../../10916_Farm_Interior.png",
      "name": "Farm_Interior"
    }
  ],
  "materials": [
    {
      "pbrMetallicRoughness": {
        "baseColorTexture": {
          "index": 0
        },
        "metallicFactor": 0.0,
        "roughnessFactor": 0.5
      },
      "name": "Farm_Interior 1"
    }
  ],
  "meshes": [
    {
      "primitives": [
        {
          "attributes": {
            "POSITION": 0,
            "NORMAL": 1,
            "TANGENT": 2,
            "TEXCOORD_0": 3
          },
          "indices": 4,
          "material": 0
        }
      ],
      "name": "Clock_05"
    }
  ],
  "nodes": [
    {
      "mesh": 0,
      "rotation": [
        2.18556941E-08,
        0.0,
        0.0,
        -1.0
      ],
      "translation": [
        1.68141222,
        0.07536602,
        1.49662066
      ],
      "name": "Clock_05"
    }
  ],
  "samplers": [
    {
      "minFilter": 9729
    }
  ],
  "scene": 0,
  "scenes": [
    {
      "nodes": [
        0
      ],
      "name": "Clock_05"
    }
  ],
  "textures": [
    {
      "sampler": 0,
      "source": 0,
      "name": "Farm_Interior"
    }
  ]
}