{
    "asset" : {
        "generator" : "Khronos glTF Blender I/O v0.9.35",
        "version" : "2.0"
    },
    "scene" : 0,
    "scenes" : [
        {
            "name" : "Scene",
            "nodes" : [
                0
            ]
        }
    ],
    "nodes" : [
        {
            "mesh" : 0,
            "name" : "MicrowaveOven",
            "rotation" : [
                0,
                -0.7071067690849304,
                0,
                0.7071067690849304
            ],
            "scale" : [
                0.7100573182106018,
                0.7078158259391785,
                0.7100573182106018
            ],
            "translation" : [
                5.8145599365234375,
                1.3545708656311035,
                -2.5205044746398926
            ]
        }
    ],
    "materials" : [
        {
            "doubleSided" : true,
            "name" : "WhiteMatte",
            "pbrMetallicRoughness" : {}
        },
        {
            "doubleSided" : true,
            "name" : "RedMid",
            "pbrMetallicRoughness" : {}
        },
        {
            "doubleSided" : true,
            "name" : "YellowMid",
            "pbrMetallicRoughness" : {}
        },
        {
            "doubleSided" : true,
            "name" : "BlackMid",
            "pbrMetallicRoughness" : {}
        },
        {
            "doubleSided" : true,
            "name" : "GrayMatte",
            "pbrMetallicRoughness" : {}
        }
    ],
    "meshes" : [
        {
            "name" : "Cube.015",
            "primitives" : [
                {
                    "attributes" : {
                        "POSITION" : 0,
                        "NORMAL" : 1
                    },
                    "indices" : 2,
                    "material" : 0
                },
                {
                    "attributes" : {
                        "POSITION" : 3,
                        "NORMAL" : 4
                    },
                    "indices" : 5,
                    "material" : 1
                },
                {
                    "attributes" : {
                        "POSITION" : 6,
                        "NORMAL" : 7
                    },
                    "indices" : 8,
                    "material" : 2
                },
                {
                    "attributes" : {
                        "POSITION" : 9,
                        "NORMAL" : 10
                    },
                    "indices" : 11,
                    "material" : 3
                },
                {
                    "attributes" : {
                        "POSITION" : 12,
                        "NORMAL" : 13
                    },
                    "indices" : 14,
                    "material" : 4
                },
                {
                    "attributes" : {
                        "POSITION" : 15,
                        "NORMAL" : 16
                    },
                    "indices" : 17,
                    "material" : 3
                }
            ]
        }
    ],
    "accessors" : [
        {
            "bufferView" : 0,
            "componentType" : 5126,
            "count" : 910,
            "max" : [
                0.5039706230163574,
                0.788933277130127,
                0.5957491993904114
            ],
            "min" : [
                -0.5153510570526123,
                5.960464477539063e-08,
                -0.5984713435173035
            ],
            "type" : "VEC3"
        },
        {
            "bufferView" : 1,
            "componentType" : 5126,
            "count" : 910,
            "type" : "VEC3"
        },
        {
            "bufferView" : 2,
            "componentType" : 5123,
            "count" : 2868,
            "type" : "SCALAR"
        },
        {
            "bufferView" : 3,
            "componentType" : 5126,
            "count" : 105,
            "max" : [
                0.5058892369270325,
                0.4737389385700226,
                -0.4680253565311432
            ],
            "min" : [
                0.4964389204978943,
                0.409551203250885,
                -0.5320104956626892
            ],
            "type" : "VEC3"
        },
        {
            "bufferView" : 4,
            "componentType" : 5126,
            "count" : 105,
            "type" : "VEC3"
        },
        {
            "bufferView" : 5,
            "componentType" : 5123,
            "count" : 576,
            "type" : "SCALAR"
        },
        {
            "bufferView" : 6,
            "componentType" : 5126,
            "count" : 10,
            "max" : [
                0.47949814796447754,
                0.7253429889678955,
                -0.44547340273857117
            ],
            "min" : [
                0.47949814796447754,
                0.6625964641571045,
                -0.554562509059906
            ],
            "type" : "VEC3"
        },
        {
            "bufferView" : 7,
            "componentType" : 5126,
            "count" : 10,
            "type" : "VEC3"
        },
        {
            "bufferView" : 8,
            "componentType" : 5123,
            "count" : 24,
            "type" : "SCALAR"
        },
        {
            "bufferView" : 9,
            "componentType" : 5126,
            "count" : 656,
            "max" : [
                0.5039706230163574,
                0.7567565441131592,
                0.552132248878479
            ],
            "min" : [
                -0.30317258834838867,
                0.11407041549682617,
                -0.3838924467563629
            ],
            "type" : "VEC3"
        },
        {
            "bufferView" : 10,
            "componentType" : 5126,
            "count" : 656,
            "type" : "VEC3"
        },
        {
            "bufferView" : 11,
            "componentType" : 5123,
            "count" : 1254,
            "type" : "SCALAR"
        },
        {
            "bufferView" : 12,
            "componentType" : 5126,
            "count" : 24,
            "max" : [
                0.48840445280075073,
                0.17696210741996765,
                -0.44367334246635437
            ],
            "min" : [
                0.48840445280075073,
                0.09404832124710083,
                -0.5563625693321228
            ],
            "type" : "VEC3"
        },
        {
            "bufferView" : 13,
            "componentType" : 5126,
            "count" : 24,
            "type" : "VEC3"
        },
        {
            "bufferView" : 14,
            "componentType" : 5123,
            "count" : 48,
            "type" : "SCALAR"
        },
        {
            "bufferView" : 15,
            "componentType" : 5126,
            "count" : 452,
            "max" : [
                0.4750843644142151,
                0.4491785168647766,
                0.4400917887687683
            ],
            "min" : [
                -0.3019823431968689,
                0.4145674705505371,
                -0.27185195684432983
            ],
            "type" : "VEC3"
        },
        {
            "bufferView" : 16,
            "componentType" : 5126,
            "count" : 452,
            "type" : "VEC3"
        },
        {
            "bufferView" : 17,
            "componentType" : 5123,
            "count" : 708,
            "type" : "SCALAR"
        }
    ],
    "bufferViews" : [
        {
            "buffer" : 0,
            "byteLength" : 10920,
            "byteOffset" : 0
        },
        {
            "buffer" : 0,
            "byteLength" : 10920,
            "byteOffset" : 10920
        },
        {
            "buffer" : 0,
            "byteLength" : 5736,
            "byteOffset" : 21840
        },
        {
            "buffer" : 0,
            "byteLength" : 1260,
            "byteOffset" : 27576
        },
        {
            "buffer" : 0,
            "byteLength" : 1260,
            "byteOffset" : 28836
        },
        {
            "buffer" : 0,
            "byteLength" : 1152,
            "byteOffset" : 30096
        },
        {
            "buffer" : 0,
            "byteLength" : 120,
            "byteOffset" : 31248
        },
        {
            "buffer" : 0,
            "byteLength" : 120,
            "byteOffset" : 31368
        },
        {
            "buffer" : 0,
            "byteLength" : 48,
            "byteOffset" : 31488
        },
        {
            "buffer" : 0,
            "byteLength" : 7872,
            "byteOffset" : 31536
        },
        {
            "buffer" : 0,
            "byteLength" : 7872,
            "byteOffset" : 39408
        },
        {
            "buffer" : 0,
            "byteLength" : 2508,
            "byteOffset" : 47280
        },
        {
            "buffer" : 0,
            "byteLength" : 288,
            "byteOffset" : 49788
        },
        {
            "buffer" : 0,
            "byteLength" : 288,
            "byteOffset" : 50076
        },
        {
            "buffer" : 0,
            "byteLength" : 96,
            "byteOffset" : 50364
        },
        {
            "buffer" : 0,
            "byteLength" : 5424,
            "byteOffset" : 50460
        },
        {
            "buffer" : 0,
            "byteLength" : 5424,
            "byteOffset" : 55884
        },
        {
            "buffer" : 0,
            "byteLength" : 1416,
            "byteOffset" : 61308
        }
    ],
    "buffers" : [
        {
            "byteLength" : 62724,
            "uri" : "micro.bin"
        }
    ]
}
