{
  "accessors": [
    {
      "bufferView": 0,
      "componentType": 5126,
      "count": 402,
      "type": "VEC3",
      "max": [
        37.179450988769531,
        28.321617126464844,
        17.538238525390625
      ],
      "min": [
        -37.179420471191406,
        -0.046307563781738281,
        -17.538219451904297
      ]
    },
    {
      "bufferView": 1,
      "componentType": 5126,
      "count": 402,
      "type": "VEC3",
      "max": [
        0.98625236749649048,
        1.0,
        0.99897384643554688
      ],
      "min": [
        -0.98625236749649048,
        -0.93580037355422974,
        -1.0
      ]
    },
    {
      "bufferView": 2,
      "componentType": 5126,
      "count": 402,
      "type": "VEC4",
      "max": [
        1.0,
        0.96130192279815674,
        0.98925471305847168,
        1.0
      ],
      "min": [
        -1.0,
        -0.99629175662994385,
        -0.93798333406448364,
        -1.0
      ]
    },
    {
      "bufferView": 3,
      "componentType": 5126,
      "count": 402,
      "type": "VEC2",
      "max": [
        0.87377780675888062,
        0.37403255701065063
      ],
      "min": [
        0.75093621015548706,
        0.251297265291214
      ]
    },
    {
      "bufferView": 4,
      "componentType": 5125,
      "count": 1488,
      "type": "SCALAR",
      "max": [
        401.0
      ],
      "min": [
        0.0
      ]
    }
  ],
  "asset": {
    "generator": "UnityGLTF (2019.1.4f1)",
    "version": "2.0"
  },
  "buffers": [
    {
      "uri": "Sofa_03.bin",
      "byteLength": 25248
    }
  ],
  "bufferViews": [
    {
      "buffer": 0,
      "byteLength": 4824
    },
    {
      "buffer": 0,
      "byteOffset": 4824,
      "byteLength": 4824
    },
    {
      "buffer": 0,
      "byteOffset": 9648,
      "byteLength": 6432
    },
    {
      "buffer": 0,
      "byteOffset": 16080,
      "byteLength": 3216
    },
    {
      "buffer": 0,
      "byteOffset": 19296,
      "byteLength": 5952
    }
  ],
  "images": [
    {
      "uri": "../../10916_Farm_Interior.png",
      "name": "Farm_Interior"
    }
  ],
  "materials": [
    {
      "pbrMetallicRoughness": {
        "baseColorTexture": {
          "index": 0
        },
        "metallicFactor": 0.0,
        "roughnessFactor": 0.5
      },
      "name": "Farm_Interior 1"
    }
  ],
  "meshes": [
    {
      "primitives": [
        {
          "attributes": {
            "POSITION": 0,
            "NORMAL": 1,
            "TANGENT": 2,
            "TEXCOORD_0": 3
          },
          "indices": 4,
          "material": 0
        }
      ],
      "name": "Sofa_03"
    }
  ],
  "nodes": [
    {
      "mesh": 0,
      "rotation": [
        2.18556941E-08,
        0.0,
        0.0,
        -1.0
      ],
      "translation": [
        1.68141222,
        0.07536602,
        1.49662066
      ],
      "name": "Sofa_03"
    }
  ],
  "samplers": [
    {
      "minFilter": 9729
    }
  ],
  "scene": 0,
  "scenes": [
    {
      "nodes": [
        0
      ],
      "name": "Sofa_03"
    }
  ],
  "textures": [
    {
      "sampler": 0,
      "source": 0,
      "name": "Farm_Interior"
    }
  ]
}