{
  "accessors": [
    {
      "bufferView": 0,
      "componentType": 5126,
      "count": 1168,
      "type": "VEC3",
      "max": [
        12.790937423706055,
        38.7550048828125,
        11.717288970947266
      ],
      "min": [
        -12.790936470031738,
        -0.056211471557617188,
        -11.717293739318848
      ]
    },
    {
      "bufferView": 1,
      "componentType": 5126,
      "count": 1168,
      "type": "VEC3",
      "max": [
        1.0,
        1.0,
        1.0
      ],
      "min": [
        -1.0,
        -1.0,
        -1.0
      ]
    },
    {
      "bufferView": 2,
      "componentType": 5126,
      "count": 1168,
      "type": "VEC4",
      "max": [
        1.0,
        1.0,
        1.0,
        1.0
      ],
      "min": [
        -1.0,
        -1.0,
        -1.0,
        -1.0
      ]
    },
    {
      "bufferView": 3,
      "componentType": 5126,
      "count": 1168,
      "type": "VEC2",
      "max": [
        0.24915491044521332,
        0.61813104152679443
      ],
      "min": [
        0.12622267007827759,
        0.5008087158203125
      ]
    },
    {
      "bufferView": 4,
      "componentType": 5125,
      "count": 3168,
      "type": "SCALAR",
      "max": [
        1167.0
      ],
      "min": [
        0.0
      ]
    }
  ],
  "asset": {
    "generator": "UnityGLTF (2019.1.4f1)",
    "version": "2.0"
  },
  "buffers": [
    {
      "uri": "Fridge_02.bin",
      "byteLength": 68736
    }
  ],
  "bufferViews": [
    {
      "buffer": 0,
      "byteLength": 14016
    },
    {
      "buffer": 0,
      "byteOffset": 14016,
      "byteLength": 14016
    },
    {
      "buffer": 0,
      "byteOffset": 28032,
      "byteLength": 18688
    },
    {
      "buffer": 0,
      "byteOffset": 46720,
      "byteLength": 9344
    },
    {
      "buffer": 0,
      "byteOffset": 56064,
      "byteLength": 12672
    }
  ],
  "images": [
    {
      "uri": "../../10916_Farm_Interior.png",
      "name": "Farm_Interior"
    }
  ],
  "materials": [
    {
      "pbrMetallicRoughness": {
        "baseColorTexture": {
          "index": 0
        },
        "metallicFactor": 0.0,
        "roughnessFactor": 0.5
      },
      "name": "Farm_Interior 1"
    }
  ],
  "meshes": [
    {
      "primitives": [
        {
          "attributes": {
            "POSITION": 0,
            "NORMAL": 1,
            "TANGENT": 2,
            "TEXCOORD_0": 3
          },
          "indices": 4,
          "material": 0
        }
      ],
      "name": "Fridge_02"
    }
  ],
  "nodes": [
    {
      "mesh": 0,
      "rotation": [
        2.18556941E-08,
        0.0,
        0.0,
        -1.0
      ],
      "translation": [
        1.68141222,
        0.07536602,
        1.49662066
      ],
      "name": "Fridge_02"
    }
  ],
  "samplers": [
    {
      "minFilter": 9729
    }
  ],
  "scene": 0,
  "scenes": [
    {
      "nodes": [
        0
      ],
      "name": "Fridge_02"
    }
  ],
  "textures": [
    {
      "sampler": 0,
      "source": 0,
      "name": "Farm_Interior"
    }
  ]
}