{
  "accessors": [
    {
      "bufferView": 0,
      "componentType": 5126,
      "count": 283,
      "type": "VEC3",
      "max": [
        0.18318732082843781,
        0.60794258117675781,
        0.11640579253435135
      ],
      "min": [
        -0.18660865724086761,
        -0.00065384997287765145,
        -0.29929471015930176
      ]
    },
    {
      "bufferView": 1,
      "componentType": 5126,
      "count": 283,
      "type": "VEC3",
      "max": [
        0.99384957551956177,
        1.0,
        0.994021475315094
      ],
      "min": [
        -0.9735870361328125,
        -1.0,
        -0.97371417284011841
      ]
    },
    {
      "bufferView": 2,
      "componentType": 5126,
      "count": 283,
      "type": "VEC4",
      "max": [
        0.99978643655776978,
        0.97758406400680542,
        1.0,
        -1.0
      ],
      "min": [
        -0.99998068809509277,
        -0.96260368824005127,
        -1.0,
        -1.0
      ]
    },
    {
      "bufferView": 3,
      "componentType": 5126,
      "count": 283,
      "type": "VEC2",
      "max": [
        0.9969630241394043,
        0.99772399663925171
      ],
      "min": [
        0.012729999609291553,
        0.0052350000478327274
      ]
    },
    {
      "bufferView": 4,
      "componentType": 5125,
      "count": 933,
      "type": "SCALAR",
      "max": [
        282.0
      ],
      "min": [
        0.0
      ]
    }
  ],
  "asset": {
    "generator": "UnityGLTF (2019.1.4f1)",
    "version": "2.0"
  },
  "buffers": [
    {
      "uri": "SM_Wall lamp_00.bin",
      "byteLength": 17316
    }
  ],
  "bufferViews": [
    {
      "buffer": 0,
      "byteLength": 3396
    },
    {
      "buffer": 0,
      "byteOffset": 3396,
      "byteLength": 3396
    },
    {
      "buffer": 0,
      "byteOffset": 6792,
      "byteLength": 4528
    },
    {
      "buffer": 0,
      "byteOffset": 11320,
      "byteLength": 2264
    },
    {
      "buffer": 0,
      "byteOffset": 13584,
      "byteLength": 3732
    }
  ],
  "images": [
    {
      "uri": "../../11284_T_lighting.png",
      "name": "T_lighting"
    }
  ],
  "materials": [
    {
      "pbrMetallicRoughness": {
        "baseColorTexture": {
          "index": 0
        },
        "metallicFactor": 0.0,
        "roughnessFactor": 0.5
      },
      "name": "T_lighting"
    }
  ],
  "meshes": [
    {
      "primitives": [
        {
          "attributes": {
            "POSITION": 0,
            "NORMAL": 1,
            "TANGENT": 2,
            "TEXCOORD_0": 3
          },
          "indices": 4,
          "material": 0
        }
      ],
      "name": "SM_Wall lamp_00"
    }
  ],
  "nodes": [
    {
      "mesh": 0,
      "rotation": [
        0.0,
        0.0,
        0.0,
        -1.0
      ],
      "name": "SM_Wall lamp_00"
    }
  ],
  "samplers": [
    {
      "minFilter": 9729
    }
  ],
  "scene": 0,
  "scenes": [
    {
      "nodes": [
        0
      ],
      "name": "SM_Wall lamp_00"
    }
  ],
  "textures": [
    {
      "sampler": 0,
      "source": 0,
      "name": "T_lighting"
    }
  ]
}