{
  "accessors": [
    {
      "bufferView": 0,
      "componentType": 5126,
      "count": 244,
      "type": "VEC3",
      "max": [
        0.42726096510887146,
        0.692200779914856,
        0.33983173966407776
      ],
      "min": [
        -0.41451528668403625,
        -0.00086498993914574385,
        -0.4236067533493042
      ]
    },
    {
      "bufferView": 1,
      "componentType": 5126,
      "count": 244,
      "type": "VEC3",
      "max": [
        1.0,
        1.0,
        1.0
      ],
      "min": [
        -1.0,
        -1.0,
        -1.0
      ]
    },
    {
      "bufferView": 2,
      "componentType": 5126,
      "count": 244,
      "type": "VEC4",
      "max": [
        0.99999773502349854,
        0.9999542236328125,
        1.0,
        1.0
      ],
      "min": [
        -1.0,
        -0.99991655349731445,
        -1.0,
        -1.0
      ]
    },
    {
      "bufferView": 3,
      "componentType": 5126,
      "count": 244,
      "type": "VEC2",
      "max": [
        0.99613100290298462,
        0.997564971446991
      ],
      "min": [
        0.21212099492549896,
        0.23706300556659698
      ]
    },
    {
      "bufferView": 4,
      "componentType": 5125,
      "count": 366,
      "type": "SCALAR",
      "max": [
        243.0
      ],
      "min": [
        0.0
      ]
    }
  ],
  "asset": {
    "generator": "UnityGLTF (2019.1.4f1)",
    "version": "2.0"
  },
  "buffers": [
    {
      "uri": "SM_cupboard_06.bin",
      "byteLength": 13176
    }
  ],
  "bufferViews": [
    {
      "buffer": 0,
      "byteLength": 2928
    },
    {
      "buffer": 0,
      "byteOffset": 2928,
      "byteLength": 2928
    },
    {
      "buffer": 0,
      "byteOffset": 5856,
      "byteLength": 3904
    },
    {
      "buffer": 0,
      "byteOffset": 9760,
      "byteLength": 1952
    },
    {
      "buffer": 0,
      "byteOffset": 11712,
      "byteLength": 1464
    }
  ],
  "images": [
    {
      "uri": "../../11388_T_furniture.jpg",
      "name": "T_furniture"
    }
  ],
  "materials": [
    {
      "pbrMetallicRoughness": {
        "baseColorTexture": {
          "index": 0
        },
        "metallicFactor": 0.0,
        "roughnessFactor": 0.5
      },
      "name": "T_furniture"
    }
  ],
  "meshes": [
    {
      "primitives": [
        {
          "attributes": {
            "POSITION": 0,
            "NORMAL": 1,
            "TANGENT": 2,
            "TEXCOORD_0": 3
          },
          "indices": 4,
          "material": 0
        }
      ],
      "name": "SM_cupboard_06"
    }
  ],
  "nodes": [
    {
      "mesh": 0,
      "rotation": [
        0.0,
        0.0,
        0.0,
        -1.0
      ],
      "name": "SM_cupboard_06"
    }
  ],
  "samplers": [
    {
      "minFilter": 9729
    }
  ],
  "scene": 0,
  "scenes": [
    {
      "nodes": [
        0
      ],
      "name": "SM_cupboard_06"
    }
  ],
  "textures": [
    {
      "sampler": 0,
      "source": 0,
      "name": "T_furniture"
    }
  ]
}