{
  "accessors": [
    {
      "bufferView": 0,
      "componentType": 5126,
      "count": 1074,
      "type": "VEC3",
      "max": [
        53.519329071044922,
        43.095024108886719,
        10.021194458007813
      ],
      "min": [
        -53.519325256347656,
        0.0049741268157958984,
        -22.209470748901367
      ]
    },
    {
      "bufferView": 1,
      "componentType": 5126,
      "count": 1074,
      "type": "VEC3",
      "max": [
        1.0,
        1.0,
        1.0
      ],
      "min": [
        -1.0,
        -1.0,
        -1.0
      ]
    },
    {
      "bufferView": 2,
      "componentType": 5126,
      "count": 1074,
      "type": "VEC4",
      "max": [
        1.0,
        1.0,
        1.0,
        1.0
      ],
      "min": [
        -1.0,
        -1.0,
        -1.0,
        -1.0
      ]
    },
    {
      "bufferView": 3,
      "componentType": 5126,
      "count": 1074,
      "type": "VEC2",
      "max": [
        0.37406200170516968,
        0.87374818325042725
      ],
      "min": [
        0.25095844268798828,
        0.75051116943359375
      ]
    },
    {
      "bufferView": 4,
      "componentType": 5125,
      "count": 2676,
      "type": "SCALAR",
      "max": [
        1073.0
      ],
      "min": [
        0.0
      ]
    }
  ],
  "asset": {
    "generator": "UnityGLTF (2019.1.4f1)",
    "version": "2.0"
  },
  "buffers": [
    {
      "uri": "Cabinet_05.bin",
      "byteLength": 62256
    }
  ],
  "bufferViews": [
    {
      "buffer": 0,
      "byteLength": 12888
    },
    {
      "buffer": 0,
      "byteOffset": 12888,
      "byteLength": 12888
    },
    {
      "buffer": 0,
      "byteOffset": 25776,
      "byteLength": 17184
    },
    {
      "buffer": 0,
      "byteOffset": 42960,
      "byteLength": 8592
    },
    {
      "buffer": 0,
      "byteOffset": 51552,
      "byteLength": 10704
    }
  ],
  "images": [
    {
      "uri": "../../10916_Farm_Interior.png",
      "name": "Farm_Interior"
    }
  ],
  "materials": [
    {
      "pbrMetallicRoughness": {
        "baseColorTexture": {
          "index": 0
        },
        "metallicFactor": 0.0,
        "roughnessFactor": 0.5
      },
      "name": "Farm_Interior 1"
    }
  ],
  "meshes": [
    {
      "primitives": [
        {
          "attributes": {
            "POSITION": 0,
            "NORMAL": 1,
            "TANGENT": 2,
            "TEXCOORD_0": 3
          },
          "indices": 4,
          "material": 0
        }
      ],
      "name": "Cabinet_05"
    }
  ],
  "nodes": [
    {
      "mesh": 0,
      "rotation": [
        2.18556941E-08,
        0.0,
        0.0,
        -1.0
      ],
      "translation": [
        1.68141222,
        0.07536602,
        1.49662066
      ],
      "name": "Cabinet_05"
    }
  ],
  "samplers": [
    {
      "minFilter": 9729
    }
  ],
  "scene": 0,
  "scenes": [
    {
      "nodes": [
        0
      ],
      "name": "Cabinet_05"
    }
  ],
  "textures": [
    {
      "sampler": 0,
      "source": 0,
      "name": "Farm_Interior"
    }
  ]
}