{
    "asset" : {
        "generator" : "Khronos glTF Blender I/O v0.9.35",
        "version" : "2.0"
    },
    "extensionsUsed" : [
        "KHR_materials_unlit"
    ],
    "extensionsRequired" : [
        "KHR_materials_unlit"
    ],
    "scene" : 0,
"scenes" : [
        {
            "name" : "Scene",
            "nodes" : [
                0
            ]
        }
    ],
    "nodes" : [
        {
            "mesh" : 0,
            "name" : "fruis_and_vegetables.046",
            "rotation" : [
                0.7071068286895752,
                0,
                0,
                0.7071067094802856
            ],
            "scale" : [
                0.009999999776482582,
                0.009999999776482582,
                0.009999999776482582
            ],
            "translation" : [
                1.0535136461257935,
                0.4639213979244232,
                -4.01689338684082
            ]
        }
    ],
    "materials" : [
        {
            "doubleSided" : true,
            "extensions" : {
                "KHR_materials_unlit" : {}
            },
            "name" : "pear_mat",
            "pbrMetallicRoughness" : {
                "baseColorTexture" : {
                    "index" : 0,
                    "texCoord" : 0
                }
            }
}
    ],
    "meshes" : [
        {
            "name" : "Mesh.047",
            "primitives" : [
                {
                    "attributes" : {
                        "POSITION" : 0,
                        "NORMAL" : 1,
                        "TEXCOORD_0" : 2
                    },
                    "indices" : 3,
                    "material" : 0
                }
            ]
        }
    ],
    "textures" : [
        {
            "source" : 0
        }
    ],
    "images" : [
        {
            "mimeType" : "image/png",
            "name" : "pear_1",
            "uri": "../../textures/pear_1.png"
        }
    ],
    "accessors" : [
        {
            "bufferView" : 0,
            "componentType" : 5126,
            "count" : 297,
            "max" : [
                -24.44196319580078,
                1819.3447265625,
                45.30512237548828
            ],
            "min" : [
                -32.093597412109375,
                1804.744384765625,
                24.966400146484375
            ],
            "type" : "VEC3"
        },
        {
            "bufferView" : 1,
            "componentType" : 5126,
            "count" : 297,
            "type" : "VEC3"
        },
        {
            "bufferView" : 2,
            "componentType" : 5126,
            "count" : 297,
            "type" : "VEC2"
        },
        {
            "bufferView" : 3,
            "componentType" : 5123,
            "count" : 297,
            "type" : "SCALAR"
        }
    ],
    "bufferViews" : [
        {
            "buffer" : 0,
            "byteLength" : 3564,
            "byteOffset" : 0
        },
        {
            "buffer" : 0,
            "byteLength" : 3564,
            "byteOffset" : 3564
        },
        {
            "buffer" : 0,
            "byteLength" : 2376,
            "byteOffset" : 7128
        },
        {
            "buffer" : 0,
            "byteLength" : 594,
            "byteOffset" : 9504
        }
    ],
    "buffers" : [
        {
            "byteLength" : 10100,
            "uri": "pear_half.bin"
        }
    ]
}
