{
  "accessors": [
    {
      "bufferView": 0,
      "componentType": 5126,
      "count": 462,
      "type": "VEC3",
      "max": [
        20.931449890136719,
        62.751823425292969,
        16.091131210327148
      ],
      "min": [
        -20.931356430053711,
        0.044921875,
        -13.462042808532715
      ]
    },
    {
      "bufferView": 1,
      "componentType": 5126,
      "count": 462,
      "type": "VEC3",
      "max": [
        1.0,
        1.0,
        1.0
      ],
      "min": [
        -1.0,
        -1.0,
        -1.0
      ]
    },
    {
      "bufferView": 2,
      "componentType": 5126,
      "count": 462,
      "type": "VEC4",
      "max": [
        1.0,
        1.0,
        1.0,
        1.0
      ],
      "min": [
        -1.0,
        -1.0,
        -1.0,
        -1.0
      ]
    },
    {
      "bufferView": 3,
      "componentType": 5126,
      "count": 462,
      "type": "VEC2",
      "max": [
        0.87451326847076416,
        0.624855637550354
      ],
      "min": [
        0.75126409530639648,
        0.50087177753448486
      ]
    },
    {
      "bufferView": 4,
      "componentType": 5125,
      "count": 1128,
      "type": "SCALAR",
      "max": [
        461.0
      ],
      "min": [
        0.0
      ]
    }
  ],
  "asset": {
    "generator": "UnityGLTF (2019.1.4f1)",
    "version": "2.0"
  },
  "buffers": [
    {
      "uri": "Kitchen_Cupborad_04.bin",
      "byteLength": 26688
    }
  ],
  "bufferViews": [
    {
      "buffer": 0,
      "byteLength": 5544
    },
    {
      "buffer": 0,
      "byteOffset": 5544,
      "byteLength": 5544
    },
    {
      "buffer": 0,
      "byteOffset": 11088,
      "byteLength": 7392
    },
    {
      "buffer": 0,
      "byteOffset": 18480,
      "byteLength": 3696
    },
    {
      "buffer": 0,
      "byteOffset": 22176,
      "byteLength": 4512
    }
  ],
  "images": [
    {
      "uri": "../../10916_Farm_Interior.png",
      "name": "Farm_Interior"
    }
  ],
  "materials": [
    {
      "pbrMetallicRoughness": {
        "baseColorTexture": {
          "index": 0
        },
        "metallicFactor": 0.0,
        "roughnessFactor": 0.5
      },
      "name": "Farm_Interior 1"
    }
  ],
  "meshes": [
    {
      "primitives": [
        {
          "attributes": {
            "POSITION": 0,
            "NORMAL": 1,
            "TANGENT": 2,
            "TEXCOORD_0": 3
          },
          "indices": 4,
          "material": 0
        }
      ],
      "name": "Kitchen_Cupborad_04"
    }
  ],
  "nodes": [
    {
      "mesh": 0,
      "rotation": [
        2.18556941E-08,
        0.0,
        0.0,
        -1.0
      ],
      "translation": [
        1.68141222,
        0.07536602,
        1.49662066
      ],
      "name": "Kitchen_Cupborad_04"
    }
  ],
  "samplers": [
    {
      "minFilter": 9729
    }
  ],
  "scene": 0,
  "scenes": [
    {
      "nodes": [
        0
      ],
      "name": "Kitchen_Cupborad_04"
    }
  ],
  "textures": [
    {
      "sampler": 0,
      "source": 0,
      "name": "Farm_Interior"
    }
  ]
}