{
  "accessors": [
    {
      "bufferView": 0,
      "componentType": 5126,
      "count": 3342,
      "type": "VEC3",
      "max": [
        39.389373779296875,
        35.228435516357422,
        39.389411926269531
      ],
      "min": [
        -39.389404296875,
        0.90337753295898438,
        -39.389362335205078
      ]
    },
    {
      "bufferView": 1,
      "componentType": 5126,
      "count": 3342,
      "type": "VEC3",
      "max": [
        1.0,
        1.0,
        1.0
      ],
      "min": [
        -1.0,
        -1.0,
        -1.0
      ]
    },
    {
      "bufferView": 2,
      "componentType": 5126,
      "count": 3342,
      "type": "VEC4",
      "max": [
        1.0,
        1.0,
        1.0,
        1.0
      ],
      "min": [
        -1.0,
        -1.0,
        -1.0,
        -1.0
      ]
    },
    {
      "bufferView": 3,
      "componentType": 5126,
      "count": 3342,
      "type": "VEC2",
      "max": [
        0.37412407994270325,
        0.49897000193595886
      ],
      "min": [
        0.25015297532081604,
        0.37582436203956604
      ]
    },
    {
      "bufferView": 4,
      "componentType": 5125,
      "count": 9330,
      "type": "SCALAR",
      "max": [
        3341.0
      ],
      "min": [
        0.0
      ]
    }
  ],
  "asset": {
    "generator": "UnityGLTF (2019.1.4f1)",
    "version": "2.0"
  },
  "buffers": [
    {
      "uri": "Kitchen_Table_02.bin",
      "byteLength": 197736
    }
  ],
  "bufferViews": [
    {
      "buffer": 0,
      "byteLength": 40104
    },
    {
      "buffer": 0,
      "byteOffset": 40104,
      "byteLength": 40104
    },
    {
      "buffer": 0,
      "byteOffset": 80208,
      "byteLength": 53472
    },
    {
      "buffer": 0,
      "byteOffset": 133680,
      "byteLength": 26736
    },
    {
      "buffer": 0,
      "byteOffset": 160416,
      "byteLength": 37320
    }
  ],
  "images": [
    {
      "uri": "../../10916_Farm_Interior.png",
      "name": "Farm_Interior"
    }
  ],
  "materials": [
    {
      "pbrMetallicRoughness": {
        "baseColorTexture": {
          "index": 0
        },
        "metallicFactor": 0.0,
        "roughnessFactor": 0.5
      },
      "name": "Farm_Interior 1"
    }
  ],
  "meshes": [
    {
      "primitives": [
        {
          "attributes": {
            "POSITION": 0,
            "NORMAL": 1,
            "TANGENT": 2,
            "TEXCOORD_0": 3
          },
          "indices": 4,
          "material": 0
        }
      ],
      "name": "Kitchen_Table_02"
    }
  ],
  "nodes": [
    {
      "mesh": 0,
      "rotation": [
        2.18556941E-08,
        0.0,
        0.0,
        -1.0
      ],
      "translation": [
        1.68141222,
        0.07536602,
        1.49662066
      ],
      "name": "Kitchen_Table_02"
    }
  ],
  "samplers": [
    {
      "minFilter": 9729
    }
  ],
  "scene": 0,
  "scenes": [
    {
      "nodes": [
        0
      ],
      "name": "Kitchen_Table_02"
    }
  ],
  "textures": [
    {
      "sampler": 0,
      "source": 0,
      "name": "Farm_Interior"
    }
  ]
}