{
  "accessors": [
    {
      "bufferView": 0,
      "componentType": 5126,
      "count": 466,
      "type": "VEC3",
      "max": [
        34.758892059326172,
        35.58135986328125,
        40.241790771484375
      ],
      "min": [
        -29.562400817871094,
        -0.18792343139648438,
        -45.475410461425781
      ]
    },
    {
      "bufferView": 1,
      "componentType": 5126,
      "count": 466,
      "type": "VEC3",
      "max": [
        1.0,
        1.0,
        1.0
      ],
      "min": [
        -1.0,
        -1.0,
        -1.0
      ]
    },
    {
      "bufferView": 2,
      "componentType": 5126,
      "count": 466,
      "type": "VEC4",
      "max": [
        1.0,
        1.0,
        1.0,
        1.0
      ],
      "min": [
        -1.0,
        -1.0,
        -1.0,
        -1.0
      ]
    },
    {
      "bufferView": 3,
      "componentType": 5126,
      "count": 466,
      "type": "VEC2",
      "max": [
        0.37332910299301147,
        0.99894845485687256
      ],
      "min": [
        0.25084730982780457,
        0.87554669380187988
      ]
    },
    {
      "bufferView": 4,
      "componentType": 5125,
      "count": 1008,
      "type": "SCALAR",
      "max": [
        465.0
      ],
      "min": [
        0.0
      ]
    }
  ],
  "asset": {
    "generator": "UnityGLTF (2019.1.4f1)",
    "version": "2.0"
  },
  "buffers": [
    {
      "uri": "Single_Bed_03.bin",
      "byteLength": 26400
    }
  ],
  "bufferViews": [
    {
      "buffer": 0,
      "byteLength": 5592
    },
    {
      "buffer": 0,
      "byteOffset": 5592,
      "byteLength": 5592
    },
    {
      "buffer": 0,
      "byteOffset": 11184,
      "byteLength": 7456
    },
    {
      "buffer": 0,
      "byteOffset": 18640,
      "byteLength": 3728
    },
    {
      "buffer": 0,
      "byteOffset": 22368,
      "byteLength": 4032
    }
  ],
  "images": [
    {
      "uri": "../../10916_Farm_Interior.png",
      "name": "Farm_Interior"
    }
  ],
  "materials": [
    {
      "pbrMetallicRoughness": {
        "baseColorTexture": {
          "index": 0
        },
        "metallicFactor": 0.0,
        "roughnessFactor": 0.5
      },
      "name": "Farm_Interior 1"
    }
  ],
  "meshes": [
    {
      "primitives": [
        {
          "attributes": {
            "POSITION": 0,
            "NORMAL": 1,
            "TANGENT": 2,
            "TEXCOORD_0": 3
          },
          "indices": 4,
          "material": 0
        }
      ],
      "name": "Single_Bed_03"
    }
  ],
  "nodes": [
    {
      "mesh": 0,
      "rotation": [
        2.18556941E-08,
        0.0,
        0.0,
        -1.0
      ],
      "translation": [
        1.68141222,
        0.07536602,
        1.49662066
      ],
      "name": "Single_Bed_03"
    }
  ],
  "samplers": [
    {
      "minFilter": 9729
    }
  ],
  "scene": 0,
  "scenes": [
    {
      "nodes": [
        0
      ],
      "name": "Single_Bed_03"
    }
  ],
  "textures": [
    {
      "sampler": 0,
      "source": 0,
      "name": "Farm_Interior"
    }
  ]
}