{
  "accessors": [
    {
      "bufferView": 0,
      "componentType": 5126,
      "count": 570,
      "type": "VEC3",
      "max": [
        34.612953186035156,
        46.561492919921875,
        45.637760162353516
      ],
      "min": [
        -23.935253143310547,
        -0.46562576293945313,
        -51.482917785644531
      ]
    },
    {
      "bufferView": 1,
      "componentType": 5126,
      "count": 570,
      "type": "VEC3",
      "max": [
        1.0,
        1.0,
        1.0
      ],
      "min": [
        -1.0,
        -0.9773135781288147,
        -1.0
      ]
    },
    {
      "bufferView": 2,
      "componentType": 5126,
      "count": 570,
      "type": "VEC4",
      "max": [
        1.0,
        1.0,
        1.0,
        1.0
      ],
      "min": [
        -1.0,
        -0.99626225233078,
        -1.0,
        -1.0
      ]
    },
    {
      "bufferView": 3,
      "componentType": 5126,
      "count": 570,
      "type": "VEC2",
      "max": [
        0.24924786388874054,
        0.99877059459686279
      ],
      "min": [
        0.12617722153663635,
        0.87601286172866821
      ]
    },
    {
      "bufferView": 4,
      "componentType": 5125,
      "count": 1548,
      "type": "SCALAR",
      "max": [
        569.0
      ],
      "min": [
        0.0
      ]
    }
  ],
  "asset": {
    "generator": "UnityGLTF (2019.1.4f1)",
    "version": "2.0"
  },
  "buffers": [
    {
      "uri": "Single_Bed_02.bin",
      "byteLength": 33552
    }
  ],
  "bufferViews": [
    {
      "buffer": 0,
      "byteLength": 6840
    },
    {
      "buffer": 0,
      "byteOffset": 6840,
      "byteLength": 6840
    },
    {
      "buffer": 0,
      "byteOffset": 13680,
      "byteLength": 9120
    },
    {
      "buffer": 0,
      "byteOffset": 22800,
      "byteLength": 4560
    },
    {
      "buffer": 0,
      "byteOffset": 27360,
      "byteLength": 6192
    }
  ],
  "images": [
    {
      "uri": "../../10916_Farm_Interior.png",
      "name": "Farm_Interior"
    }
  ],
  "materials": [
    {
      "pbrMetallicRoughness": {
        "baseColorTexture": {
          "index": 0
        },
        "metallicFactor": 0.0,
        "roughnessFactor": 0.5
      },
      "name": "Farm_Interior 1"
    }
  ],
  "meshes": [
    {
      "primitives": [
        {
          "attributes": {
            "POSITION": 0,
            "NORMAL": 1,
            "TANGENT": 2,
            "TEXCOORD_0": 3
          },
          "indices": 4,
          "material": 0
        }
      ],
      "name": "Single_Bed_02"
    }
  ],
  "nodes": [
    {
      "mesh": 0,
      "rotation": [
        2.18556941E-08,
        0.0,
        0.0,
        -1.0
      ],
      "translation": [
        1.68141222,
        0.07536602,
        1.49662066
      ],
      "name": "Single_Bed_02"
    }
  ],
  "samplers": [
    {
      "minFilter": 9729
    }
  ],
  "scene": 0,
  "scenes": [
    {
      "nodes": [
        0
      ],
      "name": "Single_Bed_02"
    }
  ],
  "textures": [
    {
      "sampler": 0,
      "source": 0,
      "name": "Farm_Interior"
    }
  ]
}