{
  "accessors": [
    {
      "bufferView": 0,
      "componentType": 5126,
      "count": 196,
      "type": "VEC3",
      "max": [
        0.49872222542762756,
        1.6463025808334351,
        0.335300087928772
      ],
      "min": [
        -0.50053846836090088,
        0.0074544399976730347,
        -0.33241379261016846
      ]
    },
    {
      "bufferView": 1,
      "componentType": 5126,
      "count": 196,
      "type": "VEC3",
      "max": [
        1.0,
        1.0,
        1.0
      ],
      "min": [
        -1.0,
        -1.0,
        -1.0
      ]
    },
    {
      "bufferView": 2,
      "componentType": 5126,
      "count": 196,
      "type": "VEC4",
      "max": [
        0.999991774559021,
        0.99999511241912842,
        1.0,
        1.0
      ],
      "min": [
        -1.0,
        -0.99997794628143311,
        -1.0,
        -1.0
      ]
    },
    {
      "bufferView": 3,
      "componentType": 5126,
      "count": 196,
      "type": "VEC2",
      "max": [
        0.99613100290298462,
        0.99834799766540527
      ],
      "min": [
        0.27176898717880249,
        0.0049239997752010822
      ]
    },
    {
      "bufferView": 4,
      "componentType": 5125,
      "count": 324,
      "type": "SCALAR",
      "max": [
        195.0
      ],
      "min": [
        0.0
      ]
    }
  ],
  "asset": {
    "generator": "UnityGLTF (2019.1.4f1)",
    "version": "2.0"
  },
  "buffers": [
    {
      "uri": "SM_cupboard_03.bin",
      "byteLength": 10704
    }
  ],
  "bufferViews": [
    {
      "buffer": 0,
      "byteLength": 2352
    },
    {
      "buffer": 0,
      "byteOffset": 2352,
      "byteLength": 2352
    },
    {
      "buffer": 0,
      "byteOffset": 4704,
      "byteLength": 3136
    },
    {
      "buffer": 0,
      "byteOffset": 7840,
      "byteLength": 1568
    },
    {
      "buffer": 0,
      "byteOffset": 9408,
      "byteLength": 1296
    }
  ],
  "images": [
    {
      "uri": "../../11388_T_furniture.jpg",
      "name": "T_furniture"
    }
  ],
  "materials": [
    {
      "pbrMetallicRoughness": {
        "baseColorTexture": {
          "index": 0
        },
        "metallicFactor": 0.0,
        "roughnessFactor": 0.5
      },
      "name": "T_furniture"
    }
  ],
  "meshes": [
    {
      "primitives": [
        {
          "attributes": {
            "POSITION": 0,
            "NORMAL": 1,
            "TANGENT": 2,
            "TEXCOORD_0": 3
          },
          "indices": 4,
          "material": 0
        }
      ],
      "name": "SM_cupboard_03"
    }
  ],
  "nodes": [
    {
      "mesh": 0,
      "rotation": [
        0.0,
        0.0,
        0.0,
        -1.0
      ],
      "name": "SM_cupboard_03"
    }
  ],
  "samplers": [
    {
      "minFilter": 9729
    }
  ],
  "scene": 0,
  "scenes": [
    {
      "nodes": [
        0
      ],
      "name": "SM_cupboard_03"
    }
  ],
  "textures": [
    {
      "sampler": 0,
      "source": 0,
      "name": "T_furniture"
    }
  ]
}