{
  "accessors": [
    {
      "bufferView": 0,
      "componentType": 5126,
      "count": 1812,
      "type": "VEC3",
      "max": [
        15.603989601135254,
        38.496223449707031,
        17.899623870849609
      ],
      "min": [
        -15.603989601135254,
        -3.5762786865234375E-07,
        -15.11541748046875
      ]
    },
    {
      "bufferView": 1,
      "componentType": 5126,
      "count": 1812,
      "type": "VEC3",
      "max": [
        1.0,
        1.0,
        1.0
      ],
      "min": [
        -1.0,
        -1.0,
        -1.0
      ]
    },
    {
      "bufferView": 2,
      "componentType": 5126,
      "count": 1812,
      "type": "VEC4",
      "max": [
        1.0,
        1.0,
        1.0,
        1.0
      ],
      "min": [
        -1.0,
        -1.0,
        -1.0,
        -1.0
      ]
    },
    {
      "bufferView": 3,
      "componentType": 5126,
      "count": 1812,
      "type": "VEC2",
      "max": [
        0.24931146204471588,
        0.24996010959148407
      ],
      "min": [
        0.12583993375301361,
        0.12546581029891968
      ]
    },
    {
      "bufferView": 4,
      "componentType": 5125,
      "count": 3726,
      "type": "SCALAR",
      "max": [
        1811.0
      ],
      "min": [
        0.0
      ]
    }
  ],
  "asset": {
    "generator": "UnityGLTF (2019.1.4f1)",
    "version": "2.0"
  },
  "buffers": [
    {
      "uri": "Stove_02.bin",
      "byteLength": 101880
    }
  ],
  "bufferViews": [
    {
      "buffer": 0,
      "byteLength": 21744
    },
    {
      "buffer": 0,
      "byteOffset": 21744,
      "byteLength": 21744
    },
    {
      "buffer": 0,
      "byteOffset": 43488,
      "byteLength": 28992
    },
    {
      "buffer": 0,
      "byteOffset": 72480,
      "byteLength": 14496
    },
    {
      "buffer": 0,
      "byteOffset": 86976,
      "byteLength": 14904
    }
  ],
  "images": [
    {
      "uri": "../../10916_Farm_Interior.png",
      "name": "Farm_Interior"
    }
  ],
  "materials": [
    {
      "pbrMetallicRoughness": {
        "baseColorTexture": {
          "index": 0
        },
        "metallicFactor": 0.0,
        "roughnessFactor": 0.5
      },
      "name": "Farm_Interior 15"
    }
  ],
  "meshes": [
    {
      "primitives": [
        {
          "attributes": {
            "POSITION": 0,
            "NORMAL": 1,
            "TANGENT": 2,
            "TEXCOORD_0": 3
          },
          "indices": 4,
          "material": 0
        }
      ],
      "name": "Stove_02"
    }
  ],
  "nodes": [
    {
      "mesh": 0,
      "rotation": [
        2.18556941E-08,
        0.0,
        0.0,
        -1.0
      ],
      "translation": [
        1.68141222,
        0.07536602,
        1.49662066
      ],
      "name": "Stove_02"
    }
  ],
  "samplers": [
    {
      "minFilter": 9729
    }
  ],
  "scene": 0,
  "scenes": [
    {
      "nodes": [
        0
      ],
      "name": "Stove_02"
    }
  ],
  "textures": [
    {
      "sampler": 0,
      "source": 0,
      "name": "Farm_Interior"
    }
  ]
}