{
  "accessors": [
    {
      "bufferView": 0,
      "componentType": 5126,
      "count": 1017,
      "type": "VEC3",
      "max": [
        10.655532836914063,
        29.109504699707031,
        10.659255027770996
      ],
      "min": [
        -10.655532836914063,
        0.10183525085449219,
        -10.65925407409668
      ]
    },
    {
      "bufferView": 1,
      "componentType": 5126,
      "count": 1017,
      "type": "VEC3",
      "max": [
        1.0,
        1.0,
        1.0
      ],
      "min": [
        -1.0,
        -1.0,
        -1.0
      ]
    },
    {
      "bufferView": 2,
      "componentType": 5126,
      "count": 1017,
      "type": "VEC4",
      "max": [
        1.0,
        1.0,
        1.0,
        1.0
      ],
      "min": [
        -1.0,
        -0.99836784601211548,
        -1.0,
        -1.0
      ]
    },
    {
      "bufferView": 3,
      "componentType": 5126,
      "count": 1017,
      "type": "VEC2",
      "max": [
        0.20169144868850708,
        0.7487107515335083
      ],
      "min": [
        0.12602975964546204,
        0.62621170282363892
      ]
    },
    {
      "bufferView": 4,
      "componentType": 5125,
      "count": 3780,
      "type": "SCALAR",
      "max": [
        1016.0
      ],
      "min": [
        0.0
      ]
    }
  ],
  "asset": {
    "generator": "UnityGLTF (2019.1.4f1)",
    "version": "2.0"
  },
  "buffers": [
    {
      "uri": "Clock_04.bin",
      "byteLength": 63936
    }
  ],
  "bufferViews": [
    {
      "buffer": 0,
      "byteLength": 12204
    },
    {
      "buffer": 0,
      "byteOffset": 12204,
      "byteLength": 12204
    },
    {
      "buffer": 0,
      "byteOffset": 24408,
      "byteLength": 16272
    },
    {
      "buffer": 0,
      "byteOffset": 40680,
      "byteLength": 8136
    },
    {
      "buffer": 0,
      "byteOffset": 48816,
      "byteLength": 15120
    }
  ],
  "images": [
    {
      "uri": "../../10916_Farm_Interior.png",
      "name": "Farm_Interior"
    }
  ],
  "materials": [
    {
      "pbrMetallicRoughness": {
        "baseColorTexture": {
          "index": 0
        },
        "metallicFactor": 0.0,
        "roughnessFactor": 0.5
      },
      "name": "Farm_Interior 1"
    }
  ],
  "meshes": [
    {
      "primitives": [
        {
          "attributes": {
            "POSITION": 0,
            "NORMAL": 1,
            "TANGENT": 2,
            "TEXCOORD_0": 3
          },
          "indices": 4,
          "material": 0
        }
      ],
      "name": "Clock_04"
    }
  ],
  "nodes": [
    {
      "mesh": 0,
      "rotation": [
        2.18556941E-08,
        0.0,
        0.0,
        -1.0
      ],
      "translation": [
        1.68141222,
        0.07536602,
        1.49662066
      ],
      "name": "Clock_04"
    }
  ],
  "samplers": [
    {
      "minFilter": 9729
    }
  ],
  "scene": 0,
  "scenes": [
    {
      "nodes": [
        0
      ],
      "name": "Clock_04"
    }
  ],
  "textures": [
    {
      "sampler": 0,
      "source": 0,
      "name": "Farm_Interior"
    }
  ]
}