{
  "accessors": [
    {
      "bufferView": 0,
      "componentType": 5126,
      "count": 2500,
      "type": "VEC3",
      "max": [
        41.794967651367188,
        22.818244934082031,
        15.17096996307373
      ],
      "min": [
        -41.794960021972656,
        -22.818241119384766,
        0.00305938720703125
      ]
    },
    {
      "bufferView": 1,
      "componentType": 5126,
      "count": 2500,
      "type": "VEC3",
      "max": [
        1.0,
        1.0,
        1.0
      ],
      "min": [
        -1.0,
        -1.0,
        -1.0
      ]
    },
    {
      "bufferView": 2,
      "componentType": 5126,
      "count": 2500,
      "type": "VEC4",
      "max": [
        1.0,
        1.0,
        1.0,
        1.0
      ],
      "min": [
        -1.0,
        -1.0,
        -1.0,
        -1.0
      ]
    },
    {
      "bufferView": 3,
      "componentType": 5126,
      "count": 2500,
      "type": "VEC2",
      "max": [
        0.3746635913848877,
        0.62401241064071655
      ],
      "min": [
        0.25127154588699341,
        0.5004456639289856
      ]
    },
    {
      "bufferView": 4,
      "componentType": 5125,
      "count": 6873,
      "type": "SCALAR",
      "max": [
        2499.0
      ],
      "min": [
        0.0
      ]
    }
  ],
  "asset": {
    "generator": "UnityGLTF (2019.1.4f1)",
    "version": "2.0"
  },
  "buffers": [
    {
      "uri": "Hang_Cupboard.bin",
      "byteLength": 147492
    }
  ],
  "bufferViews": [
    {
      "buffer": 0,
      "byteLength": 30000
    },
    {
      "buffer": 0,
      "byteOffset": 30000,
      "byteLength": 30000
    },
    {
      "buffer": 0,
      "byteOffset": 60000,
      "byteLength": 40000
    },
    {
      "buffer": 0,
      "byteOffset": 100000,
      "byteLength": 20000
    },
    {
      "buffer": 0,
      "byteOffset": 120000,
      "byteLength": 27492
    }
  ],
  "images": [
    {
      "uri": "../../10916_Farm_Interior.png",
      "name": "Farm_Interior"
    }
  ],
  "materials": [
    {
      "pbrMetallicRoughness": {
        "baseColorTexture": {
          "index": 0
        },
        "metallicFactor": 0.0,
        "roughnessFactor": 0.5
      },
      "name": "Farm_Interior 1"
    }
  ],
  "meshes": [
    {
      "primitives": [
        {
          "attributes": {
            "POSITION": 0,
            "NORMAL": 1,
            "TANGENT": 2,
            "TEXCOORD_0": 3
          },
          "indices": 4,
          "material": 0
        }
      ],
      "name": "Hang_Cupboard"
    }
  ],
  "nodes": [
    {
      "mesh": 0,
      "rotation": [
        2.18556941E-08,
        0.0,
        0.0,
        -1.0
      ],
      "translation": [
        1.68141222,
        0.07536602,
        1.49662066
      ],
      "name": "Hang_Cupboard"
    }
  ],
  "samplers": [
    {
      "minFilter": 9729
    }
  ],
  "scene": 0,
  "scenes": [
    {
      "nodes": [
        0
      ],
      "name": "Hang_Cupboard"
    }
  ],
  "textures": [
    {
      "sampler": 0,
      "source": 0,
      "name": "Farm_Interior"
    }
  ]
}