{
  "accessors": [
    {
      "bufferView": 0,
      "componentType": 5126,
      "count": 56,
      "type": "VEC3",
      "max": [
        30.581211090087891,
        17.906099319458008,
        1.4083375930786133
      ],
      "min": [
        -30.581211090087891,
        -17.906106948852539,
        -1.4083585739135742
      ]
    },
    {
      "bufferView": 1,
      "componentType": 5126,
      "count": 56,
      "type": "VEC3",
      "max": [
        1.0,
        1.0,
        1.0
      ],
      "min": [
        -1.0,
        -1.0,
        -1.0
      ]
    },
    {
      "bufferView": 2,
      "componentType": 5126,
      "count": 56,
      "type": "VEC4",
      "max": [
        1.0,
        0.36610755324363708,
        0.94292694330215454,
        -1.0
      ],
      "min": [
        -1.0,
        -0.3867383599281311,
        -0.9429284930229187,
        -1.0
      ]
    },
    {
      "bufferView": 3,
      "componentType": 5126,
      "count": 56,
      "type": "VEC2",
      "max": [
        0.7416650652885437,
        0.24808523058891296
      ],
      "min": [
        0.63348942995071411,
        0.18383502960205078
      ]
    },
    {
      "bufferView": 4,
      "componentType": 5125,
      "count": 84,
      "type": "SCALAR",
      "max": [
        55.0
      ],
      "min": [
        0.0
      ]
    }
  ],
  "asset": {
    "generator": "UnityGLTF (2019.1.4f1)",
    "version": "2.0"
  },
  "buffers": [
    {
      "uri": "Picture_04.bin",
      "byteLength": 3024
    }
  ],
  "bufferViews": [
    {
      "buffer": 0,
      "byteLength": 672
    },
    {
      "buffer": 0,
      "byteOffset": 672,
      "byteLength": 672
    },
    {
      "buffer": 0,
      "byteOffset": 1344,
      "byteLength": 896
    },
    {
      "buffer": 0,
      "byteOffset": 2240,
      "byteLength": 448
    },
    {
      "buffer": 0,
      "byteOffset": 2688,
      "byteLength": 336
    }
  ],
  "images": [
    {
      "uri": "../../10916_Farm_Interior.png",
      "name": "Farm_Interior"
    }
  ],
  "materials": [
    {
      "pbrMetallicRoughness": {
        "baseColorTexture": {
          "index": 0
        },
        "metallicFactor": 0.0,
        "roughnessFactor": 0.5
      },
      "name": "Farm_Interior 1"
    }
  ],
  "meshes": [
    {
      "primitives": [
        {
          "attributes": {
            "POSITION": 0,
            "NORMAL": 1,
            "TANGENT": 2,
            "TEXCOORD_0": 3
          },
          "indices": 4,
          "material": 0
        }
      ],
      "name": "Picture_04"
    }
  ],
  "nodes": [
    {
      "mesh": 0,
      "rotation": [
        2.18556941E-08,
        0.0,
        0.0,
        -1.0
      ],
      "translation": [
        1.68141222,
        0.07536602,
        1.49662066
      ],
      "name": "Picture_04"
    }
  ],
  "samplers": [
    {
      "minFilter": 9729
    }
  ],
  "scene": 0,
  "scenes": [
    {
      "nodes": [
        0
      ],
      "name": "Picture_04"
    }
  ],
  "textures": [
    {
      "sampler": 0,
      "source": 0,
      "name": "Farm_Interior"
    }
  ]
}