{
  "accessors": [
    {
      "bufferView": 0,
      "componentType": 5126,
      "count": 32,
      "type": "VEC3",
      "max": [
        36.137184143066406,
        0.17929832637310028,
        53.6082763671875
      ],
      "min": [
        -36.137184143066406,
        -0.17929834127426147,
        -53.6082763671875
      ]
    },
    {
      "bufferView": 1,
      "componentType": 5126,
      "count": 32,
      "type": "VEC3",
      "max": [
        1.0,
        1.0,
        1.0
      ],
      "min": [
        -1.0,
        0.0,
        -1.0
      ]
    },
    {
      "bufferView": 2,
      "componentType": 5126,
      "count": 32,
      "type": "VEC4",
      "max": [
        1.0,
        0.92002081871032715,
        0.39328932762145996,
        1.0
      ],
      "min": [
        -1.0,
        0.0,
        -0.3942396342754364,
        -1.0
      ]
    },
    {
      "bufferView": 3,
      "componentType": 5126,
      "count": 32,
      "type": "VEC2",
      "max": [
        0.66721135377883911,
        0.87469935417175293
      ],
      "min": [
        0.62526631355285645,
        0.75042307376861572
      ]
    },
    {
      "bufferView": 4,
      "componentType": 5125,
      "count": 48,
      "type": "SCALAR",
      "max": [
        31.0
      ],
      "min": [
        0.0
      ]
    }
  ],
  "asset": {
    "generator": "UnityGLTF (2019.1.4f1)",
    "version": "2.0"
  },
  "buffers": [
    {
      "uri": "Carpet_03a.bin",
      "byteLength": 1728
    }
  ],
  "bufferViews": [
    {
      "buffer": 0,
      "byteLength": 384
    },
    {
      "buffer": 0,
      "byteOffset": 384,
      "byteLength": 384
    },
    {
      "buffer": 0,
      "byteOffset": 768,
      "byteLength": 512
    },
    {
      "buffer": 0,
      "byteOffset": 1280,
      "byteLength": 256
    },
    {
      "buffer": 0,
      "byteOffset": 1536,
      "byteLength": 192
    }
  ],
  "images": [
    {
      "uri": "../../10916_Farm_Interior.png",
      "name": "Farm_Interior"
    }
  ],
  "materials": [
    {
      "pbrMetallicRoughness": {
        "baseColorTexture": {
          "index": 0
        },
        "metallicFactor": 0.0,
        "roughnessFactor": 0.5
      },
      "name": "Farm_Interior 1"
    }
  ],
  "meshes": [
    {
      "primitives": [
        {
          "attributes": {
            "POSITION": 0,
            "NORMAL": 1,
            "TANGENT": 2,
            "TEXCOORD_0": 3
          },
          "indices": 4,
          "material": 0
        }
      ],
      "name": "Carpet_03a"
    }
  ],
  "nodes": [
    {
      "mesh": 0,
      "rotation": [
        2.18556941E-08,
        0.0,
        0.0,
        -1.0
      ],
      "translation": [
        1.68141222,
        0.07536602,
        1.49662066
      ],
      "name": "Carpet_03a"
    }
  ],
  "samplers": [
    {
      "minFilter": 9729
    }
  ],
  "scene": 0,
  "scenes": [
    {
      "nodes": [
        0
      ],
      "name": "Carpet_03a"
    }
  ],
  "textures": [
    {
      "sampler": 0,
      "source": 0,
      "name": "Farm_Interior"
    }
  ]
}