{
  "accessors": [
    {
      "bufferView": 0,
      "componentType": 5126,
      "count": 781,
      "type": "VEC3",
      "max": [
        20.156730651855469,
        69.139122009277344,
        16.483661651611328
      ],
      "min": [
        -20.156745910644531,
        0.030216217041015625,
        -16.483661651611328
      ]
    },
    {
      "bufferView": 1,
      "componentType": 5126,
      "count": 781,
      "type": "VEC3",
      "max": [
        1.0,
        1.0,
        1.0
      ],
      "min": [
        -1.0,
        -1.0,
        -1.0
      ]
    },
    {
      "bufferView": 2,
      "componentType": 5126,
      "count": 781,
      "type": "VEC4",
      "max": [
        1.0,
        1.0,
        1.0,
        1.0
      ],
      "min": [
        -1.0,
        -1.0,
        -1.0,
        -1.0
      ]
    },
    {
      "bufferView": 3,
      "componentType": 5126,
      "count": 781,
      "type": "VEC2",
      "max": [
        0.37380614876747131,
        0.24852076172828674
      ],
      "min": [
        0.25043439865112305,
        0.12545637786388397
      ]
    },
    {
      "bufferView": 4,
      "componentType": 5125,
      "count": 2448,
      "type": "SCALAR",
      "max": [
        780.0
      ],
      "min": [
        0.0
      ]
    }
  ],
  "asset": {
    "generator": "UnityGLTF (2019.1.4f1)",
    "version": "2.0"
  },
  "buffers": [
    {
      "uri": "TV_01.bin",
      "byteLength": 47280
    }
  ],
  "bufferViews": [
    {
      "buffer": 0,
      "byteLength": 9372
    },
    {
      "buffer": 0,
      "byteOffset": 9372,
      "byteLength": 9372
    },
    {
      "buffer": 0,
      "byteOffset": 18744,
      "byteLength": 12496
    },
    {
      "buffer": 0,
      "byteOffset": 31240,
      "byteLength": 6248
    },
    {
      "buffer": 0,
      "byteOffset": 37488,
      "byteLength": 9792
    }
  ],
  "images": [
    {
      "uri": "../../10916_Farm_Interior.png",
      "name": "Farm_Interior"
    }
  ],
  "materials": [
    {
      "pbrMetallicRoughness": {
        "baseColorTexture": {
          "index": 0
        },
        "metallicFactor": 0.0,
        "roughnessFactor": 0.5
      },
      "name": "Farm_Interior 9"
    }
  ],
  "meshes": [
    {
      "primitives": [
        {
          "attributes": {
            "POSITION": 0,
            "NORMAL": 1,
            "TANGENT": 2,
            "TEXCOORD_0": 3
          },
          "indices": 4,
          "material": 0
        }
      ],
      "name": "TV_01"
    }
  ],
  "nodes": [
    {
      "mesh": 0,
      "rotation": [
        2.18556941E-08,
        0.0,
        0.0,
        -1.0
      ],
      "translation": [
        1.68141222,
        0.07536602,
        1.49662066
      ],
      "name": "TV_01"
    }
  ],
  "samplers": [
    {
      "minFilter": 9729
    }
  ],
  "scene": 0,
  "scenes": [
    {
      "nodes": [
        0
      ],
      "name": "TV_01"
    }
  ],
  "textures": [
    {
      "sampler": 0,
      "source": 0,
      "name": "Farm_Interior"
    }
  ]
}