{
  "accessors": [
    {
      "bufferView": 0,
      "componentType": 5126,
      "count": 855,
      "type": "VEC3",
      "max": [
        21.472869873046875,
        81.13275146484375,
        15.780871391296387
      ],
      "min": [
        -21.472854614257813,
        0.032390594482421875,
        -15.791122436523438
      ]
    },
    {
      "bufferView": 1,
      "componentType": 5126,
      "count": 855,
      "type": "VEC3",
      "max": [
        1.0,
        1.0,
        1.0
      ],
      "min": [
        -1.0,
        -1.0,
        -1.0
      ]
    },
    {
      "bufferView": 2,
      "componentType": 5126,
      "count": 855,
      "type": "VEC4",
      "max": [
        1.0,
        1.0,
        1.0,
        1.0
      ],
      "min": [
        -1.0,
        -1.0,
        -1.0,
        -1.0
      ]
    },
    {
      "bufferView": 3,
      "componentType": 5126,
      "count": 855,
      "type": "VEC2",
      "max": [
        0.4996778666973114,
        0.2489822655916214
      ],
      "min": [
        0.37629815936088562,
        0.12557353079319
      ]
    },
    {
      "bufferView": 4,
      "componentType": 5125,
      "count": 2106,
      "type": "SCALAR",
      "max": [
        854.0
      ],
      "min": [
        0.0
      ]
    }
  ],
  "asset": {
    "generator": "UnityGLTF (2019.1.4f1)",
    "version": "2.0"
  },
  "buffers": [
    {
      "uri": "TV_02.bin",
      "byteLength": 49464
    }
  ],
  "bufferViews": [
    {
      "buffer": 0,
      "byteLength": 10260
    },
    {
      "buffer": 0,
      "byteOffset": 10260,
      "byteLength": 10260
    },
    {
      "buffer": 0,
      "byteOffset": 20520,
      "byteLength": 13680
    },
    {
      "buffer": 0,
      "byteOffset": 34200,
      "byteLength": 6840
    },
    {
      "buffer": 0,
      "byteOffset": 41040,
      "byteLength": 8424
    }
  ],
  "images": [
    {
      "uri": "../../10916_Farm_Interior.png",
      "name": "Farm_Interior"
    }
  ],
  "materials": [
    {
      "pbrMetallicRoughness": {
        "baseColorTexture": {
          "index": 0
        },
        "metallicFactor": 0.0,
        "roughnessFactor": 0.5
      },
      "name": "Farm_Interior 10"
    }
  ],
  "meshes": [
    {
      "primitives": [
        {
          "attributes": {
            "POSITION": 0,
            "NORMAL": 1,
            "TANGENT": 2,
            "TEXCOORD_0": 3
          },
          "indices": 4,
          "material": 0
        }
      ],
      "name": "TV_02"
    }
  ],
  "nodes": [
    {
      "mesh": 0,
      "rotation": [
        2.18556941E-08,
        0.0,
        0.0,
        -1.0
      ],
      "translation": [
        1.68141222,
        0.07536602,
        1.49662066
      ],
      "name": "TV_02"
    }
  ],
  "samplers": [
    {
      "minFilter": 9729
    }
  ],
  "scene": 0,
  "scenes": [
    {
      "nodes": [
        0
      ],
      "name": "TV_02"
    }
  ],
  "textures": [
    {
      "sampler": 0,
      "source": 0,
      "name": "Farm_Interior"
    }
  ]
}