{
  "accessors": [
    {
      "bufferView": 0,
      "componentType": 5126,
      "count": 1260,
      "type": "VEC3",
      "max": [
        26.471231460571289,
        36.0981559753418,
        3.0237047672271729
      ],
      "min": [
        -77.6174545288086,
        -44.475654602050781,
        -2.3648018836975098
      ]
    },
    {
      "bufferView": 1,
      "componentType": 5126,
      "count": 1260,
      "type": "VEC3",
      "max": [
        1.0,
        1.0,
        1.0
      ],
      "min": [
        -1.0,
        -1.0,
        -1.0
      ]
    },
    {
      "bufferView": 2,
      "componentType": 5126,
      "count": 1260,
      "type": "VEC4",
      "max": [
        1.0,
        0.99999737739562988,
        1.0,
        1.0
      ],
      "min": [
        -1.0,
        -1.0,
        -1.0,
        -1.0
      ]
    },
    {
      "bufferView": 3,
      "componentType": 5126,
      "count": 1260,
      "type": "VEC2",
      "max": [
        0.37475061416625977,
        0.37425678968429565
      ],
      "min": [
        0.25154390931129456,
        0.25108742713928223
      ]
    },
    {
      "bufferView": 4,
      "componentType": 5125,
      "count": 3870,
      "type": "SCALAR",
      "max": [
        1259.0
      ],
      "min": [
        0.0
      ]
    }
  ],
  "asset": {
    "generator": "UnityGLTF (2019.1.4f1)",
    "version": "2.0"
  },
  "buffers": [
    {
      "uri": "Mirror1.bin",
      "byteLength": 75960
    }
  ],
  "bufferViews": [
    {
      "buffer": 0,
      "byteLength": 15120
    },
    {
      "buffer": 0,
      "byteOffset": 15120,
      "byteLength": 15120
    },
    {
      "buffer": 0,
      "byteOffset": 30240,
      "byteLength": 20160
    },
    {
      "buffer": 0,
      "byteOffset": 50400,
      "byteLength": 10080
    },
    {
      "buffer": 0,
      "byteOffset": 60480,
      "byteLength": 15480
    }
  ],
  "images": [
    {
      "uri": "../../10916_Farm_Interior.png",
      "name": "Farm_Interior"
    }
  ],
  "materials": [
    {
      "pbrMetallicRoughness": {
        "baseColorTexture": {
          "index": 0
        },
        "metallicFactor": 0.0,
        "roughnessFactor": 0.5
      },
      "name": "Farm_Interior 1"
    }
  ],
  "meshes": [
    {
      "primitives": [
        {
          "attributes": {
            "POSITION": 0,
            "NORMAL": 1,
            "TANGENT": 2,
            "TEXCOORD_0": 3
          },
          "indices": 4,
          "material": 0
        }
      ],
      "name": "Mirror1"
    }
  ],
  "nodes": [
    {
      "mesh": 0,
      "rotation": [
        2.18556941E-08,
        0.0,
        0.0,
        -1.0
      ],
      "translation": [
        1.68141222,
        0.07536602,
        1.49662066
      ],
      "name": "Mirror1"
    }
  ],
  "samplers": [
    {
      "minFilter": 9729
    }
  ],
  "scene": 0,
  "scenes": [
    {
      "nodes": [
        0
      ],
      "name": "Mirror1"
    }
  ],
  "textures": [
    {
      "sampler": 0,
      "source": 0,
      "name": "Farm_Interior"
    }
  ]
}