{
  "accessors": [
    {
      "bufferView": 0,
      "componentType": 5126,
      "count": 516,
      "type": "VEC3",
      "max": [
        34.758884429931641,
        35.58135986328125,
        45.475414276123047
      ],
      "min": [
        -34.758880615234375,
        -0.18792343139648438,
        -45.475410461425781
      ]
    },
    {
      "bufferView": 1,
      "componentType": 5126,
      "count": 516,
      "type": "VEC3",
      "max": [
        1.0,
        1.0,
        1.0
      ],
      "min": [
        -1.0,
        -1.0,
        -1.0
      ]
    },
    {
      "bufferView": 2,
      "componentType": 5126,
      "count": 516,
      "type": "VEC4",
      "max": [
        1.0,
        1.0,
        1.0,
        1.0
      ],
      "min": [
        -1.0,
        -1.0,
        -1.0,
        -1.0
      ]
    },
    {
      "bufferView": 3,
      "componentType": 5126,
      "count": 516,
      "type": "VEC2",
      "max": [
        0.37332910299301147,
        0.99894839525222778
      ],
      "min": [
        0.25084730982780457,
        0.87554669380187988
      ]
    },
    {
      "bufferView": 4,
      "componentType": 5125,
      "count": 1200,
      "type": "SCALAR",
      "max": [
        515.0
      ],
      "min": [
        0.0
      ]
    }
  ],
  "asset": {
    "generator": "UnityGLTF (2019.1.4f1)",
    "version": "2.0"
  },
  "buffers": [
    {
      "uri": "Bed03.bin",
      "byteLength": 29568
    }
  ],
  "bufferViews": [
    {
      "buffer": 0,
      "byteLength": 6192
    },
    {
      "buffer": 0,
      "byteOffset": 6192,
      "byteLength": 6192
    },
    {
      "buffer": 0,
      "byteOffset": 12384,
      "byteLength": 8256
    },
    {
      "buffer": 0,
      "byteOffset": 20640,
      "byteLength": 4128
    },
    {
      "buffer": 0,
      "byteOffset": 24768,
      "byteLength": 4800
    }
  ],
  "images": [
    {
      "uri": "../../10916_Farm_Interior.png",
      "name": "Farm_Interior"
    }
  ],
  "materials": [
    {
      "pbrMetallicRoughness": {
        "baseColorTexture": {
          "index": 0
        },
        "metallicFactor": 0.0,
        "roughnessFactor": 0.5
      },
      "name": "Farm_Interior 1"
    }
  ],
  "meshes": [
    {
      "primitives": [
        {
          "attributes": {
            "POSITION": 0,
            "NORMAL": 1,
            "TANGENT": 2,
            "TEXCOORD_0": 3
          },
          "indices": 4,
          "material": 0
        }
      ],
      "name": "Bed03"
    }
  ],
  "nodes": [
    {
      "mesh": 0,
      "rotation": [
        2.18556941E-08,
        0.0,
        0.0,
        -1.0
      ],
      "translation": [
        1.68141222,
        0.07536602,
        1.49662066
      ],
      "name": "Bed03"
    }
  ],
  "samplers": [
    {
      "minFilter": 9729
    }
  ],
  "scene": 0,
  "scenes": [
    {
      "nodes": [
        0
      ],
      "name": "Bed03"
    }
  ],
  "textures": [
    {
      "sampler": 0,
      "source": 0,
      "name": "Farm_Interior"
    }
  ]
}