{
  "accessors": [
    {
      "bufferView": 0,
      "componentType": 5126,
      "count": 178,
      "type": "VEC3",
      "max": [
        0.11361035704612732,
        0.24298137426376343,
        0.13184556365013123
      ],
      "min": [
        -0.12103280425071716,
        -0.0038099698722362518,
        -0.12319795042276382
      ]
    },
    {
      "bufferView": 1,
      "componentType": 5126,
      "count": 178,
      "type": "VEC3",
      "max": [
        0.996635377407074,
        0.96914905309677124,
        0.99340677261352539
      ],
      "min": [
        -0.98860478401184082,
        -0.999893069267273,
        -0.99753028154373169
      ]
    },
    {
      "bufferView": 2,
      "componentType": 5126,
      "count": 178,
      "type": "VEC4",
      "max": [
        0.99597722291946411,
        0.96878594160079956,
        0.99540495872497559,
        -1.0
      ],
      "min": [
        -0.99232906103134155,
        -0.53238159418106079,
        -0.994897186756134,
        -1.0
      ]
    },
    {
      "bufferView": 3,
      "componentType": 5126,
      "count": 178,
      "type": "VEC2",
      "max": [
        0.85834801197052,
        0.7562599778175354
      ],
      "min": [
        0.021059999242424965,
        0.0032530000898987055
      ]
    },
    {
      "bufferView": 4,
      "componentType": 5125,
      "count": 852,
      "type": "SCALAR",
      "max": [
        177.0
      ],
      "min": [
        0.0
      ]
    }
  ],
  "asset": {
    "generator": "UnityGLTF (2019.1.4f1)",
    "version": "2.0"
  },
  "buffers": [
    {
      "uri": "SM_pumpkin_02.bin",
      "byteLength": 11952
    }
  ],
  "bufferViews": [
    {
      "buffer": 0,
      "byteLength": 2136
    },
    {
      "buffer": 0,
      "byteOffset": 2136,
      "byteLength": 2136
    },
    {
      "buffer": 0,
      "byteOffset": 4272,
      "byteLength": 2848
    },
    {
      "buffer": 0,
      "byteOffset": 7120,
      "byteLength": 1424
    },
    {
      "buffer": 0,
      "byteOffset": 8544,
      "byteLength": 3408
    }
  ],
  "images": [
    {
      "uri": "../../11506_T_Food.jpg",
      "name": "T_Food"
    }
  ],
  "materials": [
    {
      "pbrMetallicRoughness": {
        "baseColorTexture": {
          "index": 0
        },
        "metallicFactor": 0.0,
        "roughnessFactor": 0.5
      },
      "name": "T_Food"
    }
  ],
  "meshes": [
    {
      "primitives": [
        {
          "attributes": {
            "POSITION": 0,
            "NORMAL": 1,
            "TANGENT": 2,
            "TEXCOORD_0": 3
          },
          "indices": 4,
          "material": 0
        }
      ],
      "name": "SM_pumpkin_02"
    }
  ],
  "nodes": [
    {
      "mesh": 0,
      "rotation": [
        0.0,
        0.0,
        0.0,
        -1.0
      ],
      "name": "SM_pumpkin_02"
    }
  ],
  "samplers": [
    {
      "minFilter": 9729
    }
  ],
  "scene": 0,
  "scenes": [
    {
      "nodes": [
        0
      ],
      "name": "SM_pumpkin_02"
    }
  ],
  "textures": [
    {
      "sampler": 0,
      "source": 0,
      "name": "T_Food"
    }
  ]
}