{
  "accessors": [
    {
      "bufferView": 0,
      "componentType": 5126,
      "count": 1202,
      "type": "VEC3",
      "max": [
        10.969123840332031,
        48.602085113525391,
        42.770317077636719
      ],
      "min": [
        -13.192300796508789,
        0.019611358642578125,
        -43.236888885498047
      ]
    },
    {
      "bufferView": 1,
      "componentType": 5126,
      "count": 1202,
      "type": "VEC3",
      "max": [
        1.0,
        1.0,
        1.0
      ],
      "min": [
        -1.0,
        -1.0,
        -1.0
      ]
    },
    {
      "bufferView": 2,
      "componentType": 5126,
      "count": 1202,
      "type": "VEC4",
      "max": [
        1.0,
        0.99876749515533447,
        1.0,
        1.0
      ],
      "min": [
        -1.0,
        -1.0,
        -1.0,
        -1.0
      ]
    },
    {
      "bufferView": 3,
      "componentType": 5126,
      "count": 1202,
      "type": "VEC2",
      "max": [
        0.2491900622844696,
        0.49861061573028564
      ],
      "min": [
        0.0017845010152086616,
        0.25157827138900757
      ]
    },
    {
      "bufferView": 4,
      "componentType": 5125,
      "count": 3684,
      "type": "SCALAR",
      "max": [
        1201.0
      ],
      "min": [
        0.0
      ]
    }
  ],
  "asset": {
    "generator": "UnityGLTF (2019.1.4f1)",
    "version": "2.0"
  },
  "buffers": [
    {
      "uri": "Kitchen_Cabinet_01.bin",
      "byteLength": 72432
    }
  ],
  "bufferViews": [
    {
      "buffer": 0,
      "byteLength": 14424
    },
    {
      "buffer": 0,
      "byteOffset": 14424,
      "byteLength": 14424
    },
    {
      "buffer": 0,
      "byteOffset": 28848,
      "byteLength": 19232
    },
    {
      "buffer": 0,
      "byteOffset": 48080,
      "byteLength": 9616
    },
    {
      "buffer": 0,
      "byteOffset": 57696,
      "byteLength": 14736
    }
  ],
  "images": [
    {
      "uri": "../../10916_Farm_Interior.png",
      "name": "Farm_Interior"
    }
  ],
  "materials": [
    {
      "pbrMetallicRoughness": {
        "baseColorTexture": {
          "index": 0
        },
        "metallicFactor": 0.0,
        "roughnessFactor": 0.5
      },
      "name": "Farm_Interior 1"
    }
  ],
  "meshes": [
    {
      "primitives": [
        {
          "attributes": {
            "POSITION": 0,
            "NORMAL": 1,
            "TANGENT": 2,
            "TEXCOORD_0": 3
          },
          "indices": 4,
          "material": 0
        }
      ],
      "name": "Kitchen_Cabinet_01"
    }
  ],
  "nodes": [
    {
      "mesh": 0,
      "rotation": [
        2.18556941E-08,
        0.0,
        0.0,
        -1.0
      ],
      "translation": [
        1.68141222,
        0.07536602,
        1.49662066
      ],
      "name": "Kitchen_Cabinet_01"
    }
  ],
  "samplers": [
    {
      "minFilter": 9729
    }
  ],
  "scene": 0,
  "scenes": [
    {
      "nodes": [
        0
      ],
      "name": "Kitchen_Cabinet_01"
    }
  ],
  "textures": [
    {
      "sampler": 0,
      "source": 0,
      "name": "Farm_Interior"
    }
  ]
}