{
    "asset": {
        "generator": "FBX2glTF v0.9.6",
        "version": "2.0"
    },
    "scene": 0,
    "buffers": [
        {
            "byteLength": 135668,
            "uri": "buffer.bin"
        }
    ],
    "bufferViews": [
        {
            "buffer": 0,
            "byteLength": 6120,
            "byteOffset": 0,
            "target": 34963
        },
        {
            "buffer": 0,
            "byteLength": 22896,
            "byteOffset": 6120,
            "target": 34962
        },
        {
            "buffer": 0,
            "byteLength": 22896,
            "byteOffset": 29016,
            "target": 34962
        },
        {
            "buffer": 0,
            "byteLength": 30528,
            "byteOffset": 51912,
            "target": 34962
        },
        {
            "buffer": 0,
            "byteLength": 15264,
            "byteOffset": 82440,
            "target": 34962
        },
        {
            "buffer": 0,
            "byteLength": 3276,
            "byteOffset": 97704,
            "target": 34963
        },
        {
            "buffer": 0,
            "byteLength": 13008,
            "byteOffset": 100980,
            "target": 34962
        },
        {
            "buffer": 0,
            "byteLength": 13008,
            "byteOffset": 113988,
            "target": 34962
        },
        {
            "buffer": 0,
            "byteLength": 8672,
            "byteOffset": 126996,
            "target": 34962
        }
    ],
    "scenes": [
        {
            "name": "Root Scene",
            "nodes": [
                0
            ]
        }
    ],
    "accessors": [
        {
            "componentType": 5123,
            "type": "SCALAR",
            "count": 3060,
            "bufferView": 0,
            "byteOffset": 0
        },
        {
            "componentType": 5126,
            "type": "VEC3",
            "count": 1908,
            "bufferView": 1,
            "byteOffset": 0,
            "min": [
                -0.0503047183156013,
                0.0,
                -0.0441152937710285
            ],
            "max": [
                0.0503047928214073,
                0.185547485947609,
                0.0441154465079308
            ]
        },
        {
            "componentType": 5126,
            "type": "VEC3",
            "count": 1908,
            "bufferView": 2,
            "byteOffset": 0
        },
        {
            "componentType": 5126,
            "type": "VEC4",
            "count": 1908,
            "bufferView": 3,
            "byteOffset": 0
        },
        {
            "componentType": 5126,
            "type": "VEC2",
            "count": 1908,
            "bufferView": 4,
            "byteOffset": 0
        },
        {
            "componentType": 5123,
            "type": "SCALAR",
            "count": 1638,
            "bufferView": 5,
            "byteOffset": 0
        },
        {
            "componentType": 5126,
            "type": "VEC3",
            "count": 1084,
            "bufferView": 6,
            "byteOffset": 0,
            "min": [
                -0.003668975783512,
                0.0253586135804653,
                -0.116395719349384
            ],
            "max": [
                0.101933211088181,
                0.224066212773323,
                0.0585626214742661
            ]
        },
        {
            "componentType": 5126,
            "type": "VEC3",
            "count": 1084,
            "bufferView": 7,
            "byteOffset": 0
        },
        {
            "componentType": 5126,
            "type": "VEC2",
            "count": 1084,
            "bufferView": 8,
            "byteOffset": 0
        }
    ],
    "images": [
        {
            "name": "Fantasy_Texture",
            "uri": "../Fantasy_Texture.png"
        }
    ],
"samplers": [
        {}
    ],
  "textures": [
    {
      "sampler": 0,
      "source": 0,
      "name": "Fantasy_Texture"
    }
  ],
  "materials": [
    {
      "pbrMetallicRoughness": {
        "baseColorTexture": {
          "index": 0
        },
        "metallicFactor": 0.0,
        "roughnessFactor": 0.5
      },
      "name": "Fantasy_Texture"
    },
    {
      "pbrMetallicRoughness": {
        "metallicFactor": 0.0
      },
      "emissiveFactor": [
        0.0,
        0.0,
        0.0
      ],
      "name": "lambert1"
    }
  ],
"meshes": [
        {
            "name": "SF_Bld_House_Windmill_01",
            "primitives": [
                {
                    "material": 0,
                    "mode": 4,
                    "attributes": {
                        "COLOR_0": 3,
                        "NORMAL": 2,
                        "POSITION": 1,
                        "TEXCOORD_0": 4
                    },
                    "indices": 0
                }
            ]
        },
        {
            "name": "SF_Bld_HouseAdd_WindmillBlade_01",
            "primitives": [
                {
                    "material": 0,
                    "mode": 4,
                    "attributes": {
                        "NORMAL": 7,
                        "POSITION": 6,
                        "TEXCOORD_0": 8
                    },
                    "indices": 5
                }
            ]
        }
    ],
    "nodes": [
        {
            "name": "RootNode",
            "translation": [
                0.0,
                0.0,
                0.0
            ],
            "rotation": [
                0.0,
                0.0,
                0.0,
                1.0
            ],
            "scale": [
                1.0,
                1.0,
                1.0
            ],
            "children": [
                1
            ]
        },
        {
            "name": "SF_Bld_House_Windmill_01",
            "translation": [
                0.0,
                0.0,
                0.0
            ],
            "rotation": [
                0.0,
                0.0,
                0.0,
                1.0
            ],
            "scale": [
                1.0,
                1.0,
                1.0
            ],
            "children": [
                2
            ],
            "mesh": 0
        },
        {
            "name": "SF_Bld_HouseAdd_WindmillBlade_01",
            "translation": [
                0.0,
                0.0,
                0.0
            ],
            "rotation": [
                0.0,
                0.0,
                0.0,
                1.0
            ],
            "scale": [
                1.0,
                1.0,
                1.0
            ],
            "mesh": 1
        }
    ]
}