{
  "accessors": [
    {
      "bufferView": 0,
      "componentType": 5126,
      "count": 1104,
      "type": "VEC3",
      "max": [
        30.769172668457031,
        59.924045562744141,
        5.957308292388916
      ],
      "min": [
        -30.769172668457031,
        0.27000808715820313,
        -5.9573040008544922
      ]
    },
    {
      "bufferView": 1,
      "componentType": 5126,
      "count": 1104,
      "type": "VEC3",
      "max": [
        1.0,
        1.0,
        1.0
      ],
      "min": [
        -1.0,
        -1.0,
        -1.0
      ]
    },
    {
      "bufferView": 2,
      "componentType": 5126,
      "count": 1104,
      "type": "VEC4",
      "max": [
        1.0,
        0.87304806709289551,
        1.0,
        1.0
      ],
      "min": [
        -1.0,
        -1.0,
        -1.0,
        -1.0
      ]
    },
    {
      "bufferView": 3,
      "componentType": 5126,
      "count": 1104,
      "type": "VEC2",
      "max": [
        0.49940475821495056,
        0.99862879514694214
      ],
      "min": [
        0.37566336989402771,
        0.87790769338607788
      ]
    },
    {
      "bufferView": 4,
      "componentType": 5125,
      "count": 2052,
      "type": "SCALAR",
      "max": [
        1103.0
      ],
      "min": [
        0.0
      ]
    }
  ],
  "asset": {
    "generator": "UnityGLTF (2019.1.4f1)",
    "version": "2.0"
  },
  "buffers": [
    {
      "uri": "Bookcase_005.bin",
      "byteLength": 61200
    }
  ],
  "bufferViews": [
    {
      "buffer": 0,
      "byteLength": 13248
    },
    {
      "buffer": 0,
      "byteOffset": 13248,
      "byteLength": 13248
    },
    {
      "buffer": 0,
      "byteOffset": 26496,
      "byteLength": 17664
    },
    {
      "buffer": 0,
      "byteOffset": 44160,
      "byteLength": 8832
    },
    {
      "buffer": 0,
      "byteOffset": 52992,
      "byteLength": 8208
    }
  ],
  "images": [
    {
      "uri": "../../10916_Farm_Interior.png",
      "name": "Farm_Interior"
    }
  ],
  "materials": [
    {
      "pbrMetallicRoughness": {
        "baseColorTexture": {
          "index": 0
        },
        "metallicFactor": 0.0,
        "roughnessFactor": 0.5
      },
      "name": "Farm_Interior 1"
    }
  ],
  "meshes": [
    {
      "primitives": [
        {
          "attributes": {
            "POSITION": 0,
            "NORMAL": 1,
            "TANGENT": 2,
            "TEXCOORD_0": 3
          },
          "indices": 4,
          "material": 0
        }
      ],
      "name": "Bookcase_005"
    }
  ],
  "nodes": [
    {
      "mesh": 0,
      "rotation": [
        2.18556941E-08,
        0.0,
        0.0,
        -1.0
      ],
      "translation": [
        1.68141222,
        0.07536602,
        1.49662066
      ],
      "name": "Bookcase_005"
    }
  ],
  "samplers": [
    {
      "minFilter": 9729
    }
  ],
  "scene": 0,
  "scenes": [
    {
      "nodes": [
        0
      ],
      "name": "Bookcase_005"
    }
  ],
  "textures": [
    {
      "sampler": 0,
      "source": 0,
      "name": "Farm_Interior"
    }
  ]
}