{
  "accessors": [
    {
      "bufferView": 0,
      "componentType": 5126,
      "count": 232,
      "type": "VEC3",
      "max": [
        16.694686889648438,
        15.940557479858398,
        16.083267211914063
      ],
      "min": [
        -16.992019653320313,
        -0.0521392822265625,
        -17.826309204101563
      ]
    },
    {
      "bufferView": 1,
      "componentType": 5126,
      "count": 232,
      "type": "VEC3",
      "max": [
        1.0,
        1.0,
        1.0
      ],
      "min": [
        -1.0,
        -1.0,
        -1.0
      ]
    },
    {
      "bufferView": 2,
      "componentType": 5126,
      "count": 232,
      "type": "VEC4",
      "max": [
        1.0,
        1.0,
        1.0,
        1.0
      ],
      "min": [
        -1.0,
        -1.0,
        -1.0,
        -1.0
      ]
    },
    {
      "bufferView": 3,
      "componentType": 5126,
      "count": 232,
      "type": "VEC2",
      "max": [
        0.95748960971832275,
        0.37353360652923584
      ],
      "min": [
        0.91716742515563965,
        0.25156065821647644
      ]
    },
    {
      "bufferView": 4,
      "componentType": 5125,
      "count": 348,
      "type": "SCALAR",
      "max": [
        231.0
      ],
      "min": [
        0.0
      ]
    }
  ],
  "asset": {
    "generator": "UnityGLTF (2019.1.4f1)",
    "version": "2.0"
  },
  "buffers": [
    {
      "uri": "Table_02.bin",
      "byteLength": 12528
    }
  ],
  "bufferViews": [
    {
      "buffer": 0,
      "byteLength": 2784
    },
    {
      "buffer": 0,
      "byteOffset": 2784,
      "byteLength": 2784
    },
    {
      "buffer": 0,
      "byteOffset": 5568,
      "byteLength": 3712
    },
    {
      "buffer": 0,
      "byteOffset": 9280,
      "byteLength": 1856
    },
    {
      "buffer": 0,
      "byteOffset": 11136,
      "byteLength": 1392
    }
  ],
  "images": [
    {
      "uri": "../../10916_Farm_Interior.png",
      "name": "Farm_Interior"
    }
  ],
  "materials": [
    {
      "pbrMetallicRoughness": {
        "baseColorTexture": {
          "index": 0
        },
        "metallicFactor": 0.0,
        "roughnessFactor": 0.5
      },
      "name": "Farm_Interior 1"
    }
  ],
  "meshes": [
    {
      "primitives": [
        {
          "attributes": {
            "POSITION": 0,
            "NORMAL": 1,
            "TANGENT": 2,
            "TEXCOORD_0": 3
          },
          "indices": 4,
          "material": 0
        }
      ],
      "name": "Table_02"
    }
  ],
  "nodes": [
    {
      "mesh": 0,
      "rotation": [
        2.18556941E-08,
        0.0,
        0.0,
        -1.0
      ],
      "translation": [
        1.68141222,
        0.07536602,
        1.49662066
      ],
      "name": "Table_02"
    }
  ],
  "samplers": [
    {
      "minFilter": 9729
    }
  ],
  "scene": 0,
  "scenes": [
    {
      "nodes": [
        0
      ],
      "name": "Table_02"
    }
  ],
  "textures": [
    {
      "sampler": 0,
      "source": 0,
      "name": "Farm_Interior"
    }
  ]
}