{
  "accessors": [
    {
      "bufferView": 0,
      "componentType": 5126,
      "count": 204,
      "type": "VEC3",
      "max": [
        46.824417114257813,
        76.116043090820313,
        11.083870887756348
      ],
      "min": [
        -46.82440185546875,
        0.04924774169921875,
        -11.083869934082031
      ]
    },
    {
      "bufferView": 1,
      "componentType": 5126,
      "count": 204,
      "type": "VEC3",
      "max": [
        1.0,
        1.0,
        1.0
      ],
      "min": [
        -1.0,
        -1.0,
        -1.0
      ]
    },
    {
      "bufferView": 2,
      "componentType": 5126,
      "count": 204,
      "type": "VEC4",
      "max": [
        1.0,
        1.0,
        1.0,
        1.0
      ],
      "min": [
        -1.0,
        -0.39919781684875488,
        -1.0,
        -1.0
      ]
    },
    {
      "bufferView": 3,
      "componentType": 5126,
      "count": 204,
      "type": "VEC2",
      "max": [
        0.62495440244674683,
        0.24943059682846069
      ],
      "min": [
        0.50096529722213745,
        0.12623652815818787
      ]
    },
    {
      "bufferView": 4,
      "componentType": 5125,
      "count": 330,
      "type": "SCALAR",
      "max": [
        203.0
      ],
      "min": [
        0.0
      ]
    }
  ],
  "asset": {
    "generator": "UnityGLTF (2019.1.4f1)",
    "version": "2.0"
  },
  "buffers": [
    {
      "uri": "TV_03.bin",
      "byteLength": 11112
    }
  ],
  "bufferViews": [
    {
      "buffer": 0,
      "byteLength": 2448
    },
    {
      "buffer": 0,
      "byteOffset": 2448,
      "byteLength": 2448
    },
    {
      "buffer": 0,
      "byteOffset": 4896,
      "byteLength": 3264
    },
    {
      "buffer": 0,
      "byteOffset": 8160,
      "byteLength": 1632
    },
    {
      "buffer": 0,
      "byteOffset": 9792,
      "byteLength": 1320
    }
  ],
  "images": [
    {
      "uri": "../../10916_Farm_Interior.png",
      "name": "Farm_Interior"
    }
  ],
  "materials": [
    {
      "pbrMetallicRoughness": {
        "baseColorTexture": {
          "index": 0
        },
        "metallicFactor": 0.0,
        "roughnessFactor": 0.5
      },
      "name": "Farm_Interior 11"
    }
  ],
  "meshes": [
    {
      "primitives": [
        {
          "attributes": {
            "POSITION": 0,
            "NORMAL": 1,
            "TANGENT": 2,
            "TEXCOORD_0": 3
          },
          "indices": 4,
          "material": 0
        }
      ],
      "name": "TV_03"
    }
  ],
  "nodes": [
    {
      "mesh": 0,
      "rotation": [
        2.18556941E-08,
        0.0,
        0.0,
        -1.0
      ],
      "translation": [
        1.68141222,
        0.07536602,
        1.49662066
      ],
      "name": "TV_03"
    }
  ],
  "samplers": [
    {
      "minFilter": 9729
    }
  ],
  "scene": 0,
  "scenes": [
    {
      "nodes": [
        0
      ],
      "name": "TV_03"
    }
  ],
  "textures": [
    {
      "sampler": 0,
      "source": 0,
      "name": "Farm_Interior"
    }
  ]
}