{
  "accessors": [
    {
      "bufferView": 0,
      "componentType": 5126,
      "count": 1344,
      "type": "VEC3",
      "max": [
        12.799156188964844,
        38.873611450195313,
        12.424892425537109
      ],
      "min": [
        -12.799167633056641,
        0.062397003173828125,
        -12.424891471862793
      ]
    },
    {
      "bufferView": 1,
      "componentType": 5126,
      "count": 1344,
      "type": "VEC3",
      "max": [
        1.0,
        1.0,
        1.0
      ],
      "min": [
        -1.0,
        -1.0,
        -1.0
      ]
    },
    {
      "bufferView": 2,
      "componentType": 5126,
      "count": 1344,
      "type": "VEC4",
      "max": [
        1.0,
        1.0,
        1.0,
        1.0
      ],
      "min": [
        -1.0,
        -1.0,
        -1.0,
        -1.0
      ]
    },
    {
      "bufferView": 3,
      "componentType": 5126,
      "count": 1344,
      "type": "VEC2",
      "max": [
        0.24915491044521332,
        0.62397521734237671
      ],
      "min": [
        0.12647239863872528,
        0.50081849098205566
      ]
    },
    {
      "bufferView": 4,
      "componentType": 5125,
      "count": 3432,
      "type": "SCALAR",
      "max": [
        1343.0
      ],
      "min": [
        0.0
      ]
    }
  ],
  "asset": {
    "generator": "UnityGLTF (2019.1.4f1)",
    "version": "2.0"
  },
  "buffers": [
    {
      "uri": "Fridge_01.bin",
      "byteLength": 78240
    }
  ],
  "bufferViews": [
    {
      "buffer": 0,
      "byteLength": 16128
    },
    {
      "buffer": 0,
      "byteOffset": 16128,
      "byteLength": 16128
    },
    {
      "buffer": 0,
      "byteOffset": 32256,
      "byteLength": 21504
    },
    {
      "buffer": 0,
      "byteOffset": 53760,
      "byteLength": 10752
    },
    {
      "buffer": 0,
      "byteOffset": 64512,
      "byteLength": 13728
    }
  ],
  "images": [
    {
      "uri": "../../10916_Farm_Interior.png",
      "name": "Farm_Interior"
    }
  ],
  "materials": [
    {
      "pbrMetallicRoughness": {
        "baseColorTexture": {
          "index": 0
        },
        "metallicFactor": 0.0,
        "roughnessFactor": 0.5
      },
      "name": "Farm_Interior 1"
    }
  ],
  "meshes": [
    {
      "primitives": [
        {
          "attributes": {
            "POSITION": 0,
            "NORMAL": 1,
            "TANGENT": 2,
            "TEXCOORD_0": 3
          },
          "indices": 4,
          "material": 0
        }
      ],
      "name": "Fridge_01"
    }
  ],
  "nodes": [
    {
      "mesh": 0,
      "rotation": [
        2.18556941E-08,
        0.0,
        0.0,
        -1.0
      ],
      "translation": [
        1.68141222,
        0.07536602,
        1.49662066
      ],
      "name": "Fridge_01"
    }
  ],
  "samplers": [
    {
      "minFilter": 9729
    }
  ],
  "scene": 0,
  "scenes": [
    {
      "nodes": [
        0
      ],
      "name": "Fridge_01"
    }
  ],
  "textures": [
    {
      "sampler": 0,
      "source": 0,
      "name": "Farm_Interior"
    }
  ]
}