{
    "asset": {
        "generator": "FBX2glTF v0.9.6",
        "version": "2.0"
    },
    "scene": 0,
    "buffers": [
        {
            "byteLength": 197752,
            "uri": "buffer.bin"
        }
    ],
    "bufferViews": [
        {
            "buffer": 0,
            "byteLength": 15720,
            "byteOffset": 0,
            "target": 34963
        },
        {
            "buffer": 0,
            "byteLength": 58752,
            "byteOffset": 15720,
            "target": 34962
        },
        {
            "buffer": 0,
            "byteLength": 58752,
            "byteOffset": 74472,
            "target": 34962
        },
        {
            "buffer": 0,
            "byteLength": 39168,
            "byteOffset": 133224,
            "target": 34962
        },
        {
            "buffer": 0,
            "byteLength": 2064,
            "byteOffset": 172392,
            "target": 34963
        },
        {
            "buffer": 0,
            "byteLength": 8736,
            "byteOffset": 174456,
            "target": 34962
        },
        {
            "buffer": 0,
            "byteLength": 8736,
            "byteOffset": 183192,
            "target": 34962
        },
        {
            "buffer": 0,
            "byteLength": 5824,
            "byteOffset": 191928,
            "target": 34962
        }
    ],
    "scenes": [
        {
            "name": "Root Scene",
            "nodes": [
                0
            ]
        }
    ],
    "accessors": [
        {
            "componentType": 5123,
            "type": "SCALAR",
            "count": 7860,
            "bufferView": 0,
            "byteOffset": 0
        },
        {
            "componentType": 5126,
            "type": "VEC3",
            "count": 4896,
            "bufferView": 1,
            "byteOffset": 0,
            "min": [
                -0.0740724131464958,
                0.0,
                -0.0431274399161339
            ],
            "max": [
                0.0740723758935928,
                0.0990366563200951,
                0.0431274399161339
            ]
        },
        {
            "componentType": 5126,
            "type": "VEC3",
            "count": 4896,
            "bufferView": 2,
            "byteOffset": 0
        },
        {
            "componentType": 5126,
            "type": "VEC2",
            "count": 4896,
            "bufferView": 3,
            "byteOffset": 0
        },
        {
            "componentType": 5123,
            "type": "SCALAR",
            "count": 1032,
            "bufferView": 4,
            "byteOffset": 0
        },
        {
            "componentType": 5126,
            "type": "VEC3",
            "count": 728,
            "bufferView": 5,
            "byteOffset": 0,
            "min": [
                -0.0592954233288765,
                0.0464033894240856,
                -0.0380267314612865
            ],
            "max": [
                0.0707330703735352,
                0.0601772181689739,
                0.0377575680613518
            ]
        },
        {
            "componentType": 5126,
            "type": "VEC3",
            "count": 728,
            "bufferView": 6,
            "byteOffset": 0
        },
        {
            "componentType": 5126,
            "type": "VEC2",
            "count": 728,
            "bufferView": 7,
            "byteOffset": 0
        }
    ],
    "images": [
        {
            "name": "Fantasy_Texture",
            "uri": "../Fantasy_Texture.png"
        }
    ],
    "samplers": [
        {}
    ],
  "textures": [
    {
      "sampler": 0,
      "source": 0,
      "name": "Fantasy_Texture"
    }
  ],
  "materials": [
    {
      "pbrMetallicRoughness": {
        "baseColorTexture": {
          "index": 0
        },
        "metallicFactor": 0.0,
        "roughnessFactor": 0.5
      },
      "name": "Fantasy_Texture"
    },
    {
      "pbrMetallicRoughness": {
        "metallicFactor": 0.0
      },
      "emissiveFactor": [
        0.0,
        0.0,
        0.0
      ],
      "name": "lambert1"
    }
  ],
    "meshes": [
        {
            "name": "SF_Bld_OutdoorCover_02",
            "primitives": [
                {
                    "material": 0,
                    "mode": 4,
                    "attributes": {
                        "NORMAL": 2,
                        "POSITION": 1,
                        "TEXCOORD_0": 3
                    },
                    "indices": 0
                },
                {
                    "material": 1,
                    "mode": 4,
                    "attributes": {
                        "NORMAL": 6,
                        "POSITION": 5,
                        "TEXCOORD_0": 7
                    },
                    "indices": 4
                }
            ]
        }
    ],
    "nodes": [
        {
            "name": "RootNode",
            "translation": [
                0.0,
                0.0,
                0.0
            ],
            "rotation": [
                0.0,
                0.0,
                0.0,
                1.0
            ],
            "scale": [
                1.0,
                1.0,
                1.0
            ],
            "children": [
                1
            ]
        },
        {
            "name": "SF_Bld_OutdoorCover_02",
            "translation": [
                0.0,
                0.0,
                0.0
            ],
            "rotation": [
                0.0,
                0.0,
                0.0,
                1.0
            ],
            "scale": [
                1.0,
                1.0,
                1.0
            ],
            "mesh": 0
        }
    ]
}