{
  "accessors": [
    {
      "bufferView": 0,
      "componentType": 5126,
      "count": 318,
      "type": "VEC3",
      "max": [
        0.19928066432476044,
        0.35613822937011719,
        0.19856318831443787
      ],
      "min": [
        -0.19919160008430481,
        7.3620001785457134E-05,
        -0.28740644454956055
      ]
    },
    {
      "bufferView": 1,
      "componentType": 5126,
      "count": 318,
      "type": "VEC3",
      "max": [
        1.0,
        1.0,
        0.9745514988899231
      ],
      "min": [
        -1.0,
        -1.0,
        -0.97455084323883057
      ]
    },
    {
      "bufferView": 2,
      "componentType": 5126,
      "count": 318,
      "type": "VEC4",
      "max": [
        0.99998199939727783,
        0.9198310375213623,
        0.99999141693115234,
        1.0
      ],
      "min": [
        -0.99998199939727783,
        -0.96990066766738892,
        -0.99999141693115234,
        -1.0
      ]
    },
    {
      "bufferView": 3,
      "componentType": 5126,
      "count": 318,
      "type": "VEC2",
      "max": [
        0.99553900957107544,
        0.95409899950027466
      ],
      "min": [
        0.30522000789642334,
        0.33018699288368225
      ]
    },
    {
      "bufferView": 4,
      "componentType": 5125,
      "count": 1224,
      "type": "SCALAR",
      "max": [
        317.0
      ],
      "min": [
        0.0
      ]
    }
  ],
  "asset": {
    "generator": "UnityGLTF (2019.1.4f1)",
    "version": "2.0"
  },
  "buffers": [
    {
      "uri": "SM_teapot_00.bin",
      "byteLength": 20160
    }
  ],
  "bufferViews": [
    {
      "buffer": 0,
      "byteLength": 3816
    },
    {
      "buffer": 0,
      "byteOffset": 3816,
      "byteLength": 3816
    },
    {
      "buffer": 0,
      "byteOffset": 7632,
      "byteLength": 5088
    },
    {
      "buffer": 0,
      "byteOffset": 12720,
      "byteLength": 2544
    },
    {
      "buffer": 0,
      "byteOffset": 15264,
      "byteLength": 4896
    }
  ],
  "images": [
    {
      "uri": "../../11094_T_Dishes.jpg",
      "name": "T_Dishes"
    }
  ],
  "materials": [
    {
      "pbrMetallicRoughness": {
        "baseColorTexture": {
          "index": 0
        },
        "metallicFactor": 0.0,
        "roughnessFactor": 0.5
      },
      "name": "T_Dishes"
    }
  ],
  "meshes": [
    {
      "primitives": [
        {
          "attributes": {
            "POSITION": 0,
            "NORMAL": 1,
            "TANGENT": 2,
            "TEXCOORD_0": 3
          },
          "indices": 4,
          "material": 0
        }
      ],
      "name": "SM_teapot_00"
    }
  ],
  "nodes": [
    {
      "mesh": 0,
      "rotation": [
        0.0,
        0.0,
        0.0,
        -1.0
      ],
      "name": "SM_teapot_00"
    }
  ],
  "samplers": [
    {
      "minFilter": 9729
    }
  ],
  "scene": 0,
  "scenes": [
    {
      "nodes": [
        0
      ],
      "name": "SM_teapot_00"
    }
  ],
  "textures": [
    {
      "sampler": 0,
      "source": 0,
      "name": "T_Dishes"
    }
  ]
}