{
  "accessors": [
    {
      "bufferView": 0,
      "componentType": 5126,
      "count": 2734,
      "type": "VEC3",
      "max": [
        32.920333862304688,
        55.344108581542969,
        51.240852355957031
      ],
      "min": [
        -32.974029541015625,
        -0.31194400787353516,
        -51.240859985351563
      ]
    },
    {
      "bufferView": 1,
      "componentType": 5126,
      "count": 2734,
      "type": "VEC3",
      "max": [
        1.0,
        1.0,
        1.0
      ],
      "min": [
        -1.0,
        -1.0,
        -1.0
      ]
    },
    {
      "bufferView": 2,
      "componentType": 5126,
      "count": 2734,
      "type": "VEC4",
      "max": [
        1.0,
        1.0,
        1.0,
        1.0
      ],
      "min": [
        -1.0,
        -1.0,
        -1.0,
        -1.0
      ]
    },
    {
      "bufferView": 3,
      "componentType": 5126,
      "count": 2734,
      "type": "VEC2",
      "max": [
        0.12413433194160461,
        0.99862051010131836
      ],
      "min": [
        0.00060733826830983162,
        0.87577557563781738
      ]
    },
    {
      "bufferView": 4,
      "componentType": 5125,
      "count": 8544,
      "type": "SCALAR",
      "max": [
        2733.0
      ],
      "min": [
        0.0
      ]
    }
  ],
  "asset": {
    "generator": "UnityGLTF (2019.1.4f1)",
    "version": "2.0"
  },
  "buffers": [
    {
      "uri": "Bed01.bin",
      "byteLength": 165408
    }
  ],
  "bufferViews": [
    {
      "buffer": 0,
      "byteLength": 32808
    },
    {
      "buffer": 0,
      "byteOffset": 32808,
      "byteLength": 32808
    },
    {
      "buffer": 0,
      "byteOffset": 65616,
      "byteLength": 43744
    },
    {
      "buffer": 0,
      "byteOffset": 109360,
      "byteLength": 21872
    },
    {
      "buffer": 0,
      "byteOffset": 131232,
      "byteLength": 34176
    }
  ],
  "images": [
    {
      "uri": "../../10916_Farm_Interior.png",
      "name": "Farm_Interior"
    }
  ],
  "materials": [
    {
      "pbrMetallicRoughness": {
        "baseColorTexture": {
          "index": 0
        },
        "metallicFactor": 0.0,
        "roughnessFactor": 0.5
      },
      "name": "Farm_Interior 6"
    }
  ],
  "meshes": [
    {
      "primitives": [
        {
          "attributes": {
            "POSITION": 0,
            "NORMAL": 1,
            "TANGENT": 2,
            "TEXCOORD_0": 3
          },
          "indices": 4,
          "material": 0
        }
      ],
      "name": "Bed01"
    }
  ],
  "nodes": [
    {
      "mesh": 0,
      "rotation": [
        2.18556941E-08,
        0.0,
        0.0,
        -1.0
      ],
      "translation": [
        1.68141222,
        0.07536602,
        1.49662066
      ],
      "name": "Bed01"
    }
  ],
  "samplers": [
    {
      "minFilter": 9729
    }
  ],
  "scene": 0,
  "scenes": [
    {
      "nodes": [
        0
      ],
      "name": "Bed01"
    }
  ],
  "textures": [
    {
      "sampler": 0,
      "source": 0,
      "name": "Farm_Interior"
    }
  ]
}