{
    "asset": {
        "generator": "FBX2glTF v0.9.6",
        "version": "2.0"
    },
    "scene": 0,
    "buffers": [
        {
            "byteLength": 21128,
            "uri": "buffer.bin"
        }
    ],
    "bufferViews": [
        {
            "buffer": 0,
            "byteLength": 1350,
            "byteOffset": 0,
            "target": 34963
        },
        {
            "buffer": 0,
            "byteLength": 4944,
            "byteOffset": 1352,
            "target": 34962
        },
        {
            "buffer": 0,
            "byteLength": 4944,
            "byteOffset": 6296,
            "target": 34962
        },
        {
            "buffer": 0,
            "byteLength": 6592,
            "byteOffset": 11240,
            "target": 34962
        },
        {
            "buffer": 0,
            "byteLength": 3296,
            "byteOffset": 17832,
            "target": 34962
        }
    ],
    "scenes": [
        {
            "name": "Root Scene",
            "nodes": [
                0
            ]
        }
    ],
    "accessors": [
        {
            "componentType": 5123,
            "type": "SCALAR",
            "count": 675,
            "bufferView": 0,
            "byteOffset": 0
        },
        {
            "componentType": 5126,
            "type": "VEC3",
            "count": 412,
            "bufferView": 1,
            "byteOffset": 0,
            "min": [
                -0.0233940873295069,
                -0.0144009394571185,
                -0.0122295757755637
            ],
            "max": [
                0.0155881876125932,
                0.0144009105861187,
                0.0122296903282404
            ]
        },
        {
            "componentType": 5126,
            "type": "VEC3",
            "count": 412,
            "bufferView": 2,
            "byteOffset": 0
        },
        {
            "componentType": 5126,
            "type": "VEC4",
            "count": 412,
            "bufferView": 3,
            "byteOffset": 0
        },
        {
            "componentType": 5126,
            "type": "VEC2",
            "count": 412,
            "bufferView": 4,
            "byteOffset": 0
        }
    ],
    "images": [
        {
            "name": "Fantasy_Texture",
            "uri": "../Fantasy_Texture.png"
        }
    ],
"samplers": [
        {}
    ],
  "textures": [
    {
      "sampler": 0,
      "source": 0,
      "name": "Fantasy_Texture"
    }
  ],
  "materials": [
    {
      "pbrMetallicRoughness": {
        "baseColorTexture": {
          "index": 0
        },
        "metallicFactor": 0.0,
        "roughnessFactor": 0.5
      },
      "name": "Fantasy_Texture"
    },
    {
      "pbrMetallicRoughness": {
        "metallicFactor": 0.0
      },
      "emissiveFactor": [
        0.0,
        0.0,
        0.0
      ],
      "name": "lambert1"
    }
  ],
"meshes": [
        {
            "name": "SF_Bld_HouseAdd_Window_02",
            "primitives": [
                {
                    "material": 0,
                    "mode": 4,
                    "attributes": {
                        "COLOR_0": 3,
                        "NORMAL": 2,
                        "POSITION": 1,
                        "TEXCOORD_0": 4
                    },
                    "indices": 0
                }
            ]
        }
    ],
    "nodes": [
        {
            "name": "RootNode",
            "translation": [
                0.0,
                0.0,
                0.0
            ],
            "rotation": [
                0.0,
                0.0,
                0.0,
                1.0
            ],
            "scale": [
                1.0,
                1.0,
                1.0
            ],
            "children": [
                1
            ]
        },
        {
            "name": "SF_Bld_HouseAdd_Window_02",
            "translation": [
                0.0,
                0.0,
                0.0
            ],
            "rotation": [
                0.0,
                0.0,
                0.0,
                1.0
            ],
            "scale": [
                1.0,
                1.0,
                1.0
            ],
            "mesh": 0
        }
    ]
}