{
  "accessors": [
    {
      "bufferView": 0,
      "componentType": 5126,
      "count": 130,
      "type": "VEC3",
      "max": [
        0.069407910108566284,
        0.22833582758903503,
        0.06922776997089386
      ],
      "min": [
        -0.067629061639308929,
        0.00080692995106801391,
        -0.067809119820594788
      ]
    },
    {
      "bufferView": 1,
      "componentType": 5126,
      "count": 130,
      "type": "VEC3",
      "max": [
        0.99962639808654785,
        1.0,
        0.99962639808654785
      ],
      "min": [
        -0.99962639808654785,
        -1.0,
        -0.99962639808654785
      ]
    },
    {
      "bufferView": 2,
      "componentType": 5126,
      "count": 130,
      "type": "VEC4",
      "max": [
        0.96357548236846924,
        0.96979504823684692,
        0.99994969367980957,
        1.0
      ],
      "min": [
        -0.97454768419265747,
        -0.9996185302734375,
        -0.99994981288909912,
        -1.0
      ]
    },
    {
      "bufferView": 3,
      "componentType": 5126,
      "count": 130,
      "type": "VEC2",
      "max": [
        0.99654197692871094,
        0.99654102325439453
      ],
      "min": [
        0.519150972366333,
        0.0048219999298453331
      ]
    },
    {
      "bufferView": 4,
      "componentType": 5125,
      "count": 504,
      "type": "SCALAR",
      "max": [
        129.0
      ],
      "min": [
        0.0
      ]
    }
  ],
  "asset": {
    "generator": "UnityGLTF (2019.1.4f1)",
    "version": "2.0"
  },
  "buffers": [
    {
      "uri": "SM_bank_03.bin",
      "byteLength": 8256
    }
  ],
  "bufferViews": [
    {
      "buffer": 0,
      "byteLength": 1560
    },
    {
      "buffer": 0,
      "byteOffset": 1560,
      "byteLength": 1560
    },
    {
      "buffer": 0,
      "byteOffset": 3120,
      "byteLength": 2080
    },
    {
      "buffer": 0,
      "byteOffset": 5200,
      "byteLength": 1040
    },
    {
      "buffer": 0,
      "byteOffset": 6240,
      "byteLength": 2016
    }
  ],
  "images": [
    {
      "uri": "../../11024_T_banks.png",
      "name": "T_banks"
    }
  ],
  "materials": [
    {
      "pbrMetallicRoughness": {
        "baseColorTexture": {
          "index": 0
        },
        "metallicFactor": 0.0,
        "roughnessFactor": 0.5
      },
      "name": "T_banks"
    }
  ],
  "meshes": [
    {
      "primitives": [
        {
          "attributes": {
            "POSITION": 0,
            "NORMAL": 1,
            "TANGENT": 2,
            "TEXCOORD_0": 3
          },
          "indices": 4,
          "material": 0
        }
      ],
      "name": "SM_bank_03"
    }
  ],
  "nodes": [
    {
      "mesh": 0,
      "rotation": [
        0.0,
        0.0,
        0.0,
        -1.0
      ],
      "name": "SM_bank_03"
    }
  ],
  "samplers": [
    {
      "minFilter": 9729
    }
  ],
  "scene": 0,
  "scenes": [
    {
      "nodes": [
        0
      ],
      "name": "SM_bank_03"
    }
  ],
  "textures": [
    {
      "sampler": 0,
      "source": 0,
      "name": "T_banks"
    }
  ]
}