{
    "asset" : {
        "generator" : "Khronos glTF Blender I/O v0.9.35",
        "version" : "2.0"
    },
    "scene" : 0,
    "scenes" : [
        {
            "name" : "Scene",
            "nodes" : [
                0
            ]
        }
    ],
    "nodes" : [
        {
            "mesh" : 0,
            "name" : "PictureFrame.001",
            "scale" : [
                0.04321672394871712,
                0.04321672394871712,
                0.04321672394871712
            ],
            "translation" : [
                3.1718192100524902,
                3.7736494541168213,
                -2.9997992515563965
            ]
        }
    ],
    "materials" : [
        {
            "doubleSided" : true,
            "name" : "PictureFramePortrait",
            "pbrMetallicRoughness" : {}
        },
        {
            "doubleSided" : true,
            "name" : "WhiteMatte",
            "pbrMetallicRoughness" : {}
        },
        {
            "doubleSided" : true,
            "name" : "Dog2Picture",
            "pbrMetallicRoughness" : {}
        }
    ],
    "meshes" : [
        {
            "name" : "Cube.017",
            "primitives" : [
                {
                    "attributes" : {
                        "POSITION" : 0,
                        "NORMAL" : 1,
                        "TEXCOORD_0" : 2
                    },
                    "indices" : 3,
                    "material" : 0
                },
                {
                    "attributes" : {
                        "POSITION" : 4,
                        "NORMAL" : 5,
                        "TEXCOORD_0" : 6
                    },
                    "indices" : 7,
                    "material" : 1
                },
                {
                    "attributes" : {
                        "POSITION" : 8,
                        "NORMAL" : 9,
                        "TEXCOORD_0" : 10
                    },
                    "indices" : 11,
                    "material" : 2
                }
            ]
        }
    ],
    "accessors" : [
        {
            "bufferView" : 0,
            "componentType" : 5126,
            "count" : 90,
            "max" : [
                7.000001907348633,
                8.000001907348633,
                0.47535771131515503
            ],
            "min" : [
                -7.000001907348633,
                -8.000001907348633,
                -0.004642561078071594
            ],
            "type" : "VEC3"
        },
        {
            "bufferView" : 1,
            "componentType" : 5126,
            "count" : 90,
            "type" : "VEC3"
        },
        {
            "bufferView" : 2,
            "componentType" : 5126,
            "count" : 90,
            "type" : "VEC2"
        },
        {
            "bufferView" : 3,
            "componentType" : 5123,
            "count" : 354,
            "type" : "SCALAR"
        },
        {
            "bufferView" : 4,
            "componentType" : 5126,
            "count" : 74,
            "max" : [
                5.192697048187256,
                6.212018013000488,
                0.47535771131515503
            ],
            "min" : [
                -5.192697048187256,
                -6.212018013000488,
                -0.004642561078071594
            ],
            "type" : "VEC3"
        },
        {
            "bufferView" : 5,
            "componentType" : 5126,
            "count" : 74,
            "type" : "VEC3"
        },
        {
            "bufferView" : 6,
            "componentType" : 5126,
            "count" : 74,
            "type" : "VEC2"
        },
        {
            "bufferView" : 7,
            "componentType" : 5123,
            "count" : 192,
            "type" : "SCALAR"
        },
        {
            "bufferView" : 8,
            "componentType" : 5126,
            "count" : 4,
            "max" : [
                4.278296947479248,
                5.2976179122924805,
                0.05814620107412338
            ],
            "min" : [
                -4.278296947479248,
                -5.2976179122924805,
                0.05814620107412338
            ],
            "type" : "VEC3"
        },
        {
            "bufferView" : 9,
            "componentType" : 5126,
            "count" : 4,
            "type" : "VEC3"
        },
        {
            "bufferView" : 10,
            "componentType" : 5126,
            "count" : 4,
            "type" : "VEC2"
        },
        {
            "bufferView" : 11,
            "componentType" : 5123,
            "count" : 6,
            "type" : "SCALAR"
        }
    ],
    "bufferViews" : [
        {
            "buffer" : 0,
            "byteLength" : 1080,
            "byteOffset" : 0
        },
        {
            "buffer" : 0,
            "byteLength" : 1080,
            "byteOffset" : 1080
        },
        {
            "buffer" : 0,
            "byteLength" : 720,
            "byteOffset" : 2160
        },
        {
            "buffer" : 0,
            "byteLength" : 708,
            "byteOffset" : 2880
        },
        {
            "buffer" : 0,
            "byteLength" : 888,
            "byteOffset" : 3588
        },
        {
            "buffer" : 0,
            "byteLength" : 888,
            "byteOffset" : 4476
        },
        {
            "buffer" : 0,
            "byteLength" : 592,
            "byteOffset" : 5364
        },
        {
            "buffer" : 0,
            "byteLength" : 384,
            "byteOffset" : 5956
        },
        {
            "buffer" : 0,
            "byteLength" : 48,
            "byteOffset" : 6340
        },
        {
            "buffer" : 0,
            "byteLength" : 48,
            "byteOffset" : 6388
        },
        {
            "buffer" : 0,
            "byteLength" : 32,
            "byteOffset" : 6436
        },
        {
            "buffer" : 0,
            "byteLength" : 12,
            "byteOffset" : 6468
        }
    ],
    "buffers" : [
        {
            "byteLength" : 6480,
            "uri" : "frame.bin"
        }
    ]
}
