{
  "accessors": [
    {
      "bufferView": 0,
      "componentType": 5126,
      "count": 296,
      "type": "VEC3",
      "max": [
        0.499630331993103,
        1.1516654491424561,
        0.3338569700717926
      ],
      "min": [
        -0.499630331993103,
        0.0015022665029391646,
        -0.3338569700717926
      ]
    },
    {
      "bufferView": 1,
      "componentType": 5126,
      "count": 296,
      "type": "VEC3",
      "max": [
        1.0,
        1.0,
        1.0
      ],
      "min": [
        -1.0,
        -1.0,
        -1.0
      ]
    },
    {
      "bufferView": 2,
      "componentType": 5126,
      "count": 296,
      "type": "VEC4",
      "max": [
        0.99999606609344482,
        0.99999511241912842,
        1.0,
        1.0
      ],
      "min": [
        -1.0,
        -0.99997794628143311,
        -1.0,
        -1.0
      ]
    },
    {
      "bufferView": 3,
      "componentType": 5126,
      "count": 296,
      "type": "VEC2",
      "max": [
        0.99613100290298462,
        0.99834799766540527
      ],
      "min": [
        0.21212099492549896,
        0.0049239997752010822
      ]
    },
    {
      "bufferView": 4,
      "componentType": 5125,
      "count": 444,
      "type": "SCALAR",
      "max": [
        295.0
      ],
      "min": [
        0.0
      ]
    }
  ],
  "asset": {
    "generator": "UnityGLTF (2019.1.4f1)",
    "version": "2.0"
  },
  "buffers": [
    {
      "uri": "SM_cupboardsmall_01.bin",
      "byteLength": 15984
    }
  ],
  "bufferViews": [
    {
      "buffer": 0,
      "byteLength": 3552
    },
    {
      "buffer": 0,
      "byteOffset": 3552,
      "byteLength": 3552
    },
    {
      "buffer": 0,
      "byteOffset": 7104,
      "byteLength": 4736
    },
    {
      "buffer": 0,
      "byteOffset": 11840,
      "byteLength": 2368
    },
    {
      "buffer": 0,
      "byteOffset": 14208,
      "byteLength": 1776
    }
  ],
  "images": [
    {
      "uri": "../../11388_T_furniture.jpg",
      "name": "T_furniture"
    }
  ],
  "materials": [
    {
      "pbrMetallicRoughness": {
        "baseColorTexture": {
          "index": 0
        },
        "metallicFactor": 0.0,
        "roughnessFactor": 0.5
      },
      "name": "T_furniture"
    }
  ],
  "meshes": [
    {
      "primitives": [
        {
          "attributes": {
            "POSITION": 0,
            "NORMAL": 1,
            "TANGENT": 2,
            "TEXCOORD_0": 3
          },
          "indices": 4,
          "material": 0
        }
      ],
      "name": "SM_cupboardsmall_01"
    }
  ],
  "nodes": [
    {
      "mesh": 0,
      "rotation": [
        0.0,
        0.0,
        0.0,
        -1.0
      ],
      "name": "SM_cupboardsmall_01"
    }
  ],
  "samplers": [
    {
      "minFilter": 9729
    }
  ],
  "scene": 0,
  "scenes": [
    {
      "nodes": [
        0
      ],
      "name": "SM_cupboardsmall_01"
    }
  ],
  "textures": [
    {
      "sampler": 0,
      "source": 0,
      "name": "T_furniture"
    }
  ]
}