{
  "accessors": [
    {
      "bufferView": 0,
      "componentType": 5126,
      "count": 945,
      "type": "VEC3",
      "max": [
        27.156427383422852,
        91.543182373046875,
        27.156427383422852
      ],
      "min": [
        -27.156427383422852,
        -0.40160942077636719,
        -18.504964828491211
      ]
    },
    {
      "bufferView": 1,
      "componentType": 5126,
      "count": 945,
      "type": "VEC3",
      "max": [
        1.0,
        1.0,
        1.0
      ],
      "min": [
        -1.0,
        -1.0,
        -1.0
      ]
    },
    {
      "bufferView": 2,
      "componentType": 5126,
      "count": 945,
      "type": "VEC4",
      "max": [
        1.0,
        1.0,
        1.0,
        1.0
      ],
      "min": [
        -1.0,
        -1.0,
        -1.0,
        -1.0
      ]
    },
    {
      "bufferView": 3,
      "componentType": 5126,
      "count": 945,
      "type": "VEC2",
      "max": [
        0.87404215335845947,
        0.749230146408081
      ],
      "min": [
        0.75072956085205078,
        0.62551724910736084
      ]
    },
    {
      "bufferView": 4,
      "componentType": 5125,
      "count": 1944,
      "type": "SCALAR",
      "max": [
        944.0
      ],
      "min": [
        0.0
      ]
    }
  ],
  "asset": {
    "generator": "UnityGLTF (2019.1.4f1)",
    "version": "2.0"
  },
  "buffers": [
    {
      "uri": "FirePlace_03.bin",
      "byteLength": 53136
    }
  ],
  "bufferViews": [
    {
      "buffer": 0,
      "byteLength": 11340
    },
    {
      "buffer": 0,
      "byteOffset": 11340,
      "byteLength": 11340
    },
    {
      "buffer": 0,
      "byteOffset": 22680,
      "byteLength": 15120
    },
    {
      "buffer": 0,
      "byteOffset": 37800,
      "byteLength": 7560
    },
    {
      "buffer": 0,
      "byteOffset": 45360,
      "byteLength": 7776
    }
  ],
  "images": [
    {
      "uri": "../../10916_Farm_Interior.png",
      "name": "Farm_Interior"
    }
  ],
  "materials": [
    {
      "pbrMetallicRoughness": {
        "baseColorTexture": {
          "index": 0
        },
        "metallicFactor": 0.0,
        "roughnessFactor": 0.5
      },
      "name": "Farm_Interior 1"
    }
  ],
  "meshes": [
    {
      "primitives": [
        {
          "attributes": {
            "POSITION": 0,
            "NORMAL": 1,
            "TANGENT": 2,
            "TEXCOORD_0": 3
          },
          "indices": 4,
          "material": 0
        }
      ],
      "name": "FirePlace_03"
    }
  ],
  "nodes": [
    {
      "mesh": 0,
      "rotation": [
        2.18556941E-08,
        0.0,
        0.0,
        -1.0
      ],
      "translation": [
        1.68141222,
        0.07536602,
        1.49662066
      ],
      "name": "FirePlace_03"
    }
  ],
  "samplers": [
    {
      "minFilter": 9729
    }
  ],
  "scene": 0,
  "scenes": [
    {
      "nodes": [
        0
      ],
      "name": "FirePlace_03"
    }
  ],
  "textures": [
    {
      "sampler": 0,
      "source": 0,
      "name": "Farm_Interior"
    }
  ]
}