{
  "accessors": [
    {
      "bufferView": 0,
      "componentType": 5126,
      "count": 164,
      "type": "VEC3",
      "max": [
        0.31709393858909607,
        1.6463025808334351,
        0.37165343761444092
      ],
      "min": [
        -0.31298860907554626,
        0.0074544399976730347,
        -0.2960604727268219
      ]
    },
    {
      "bufferView": 1,
      "componentType": 5126,
      "count": 164,
      "type": "VEC3",
      "max": [
        1.0,
        1.0,
        1.0
      ],
      "min": [
        -1.0,
        -1.0,
        -1.0
      ]
    },
    {
      "bufferView": 2,
      "componentType": 5126,
      "count": 164,
      "type": "VEC4",
      "max": [
        0.999991774559021,
        0.99999511241912842,
        1.0,
        1.0
      ],
      "min": [
        -1.0,
        -0.85474741458892822,
        -1.0,
        -1.0
      ]
    },
    {
      "bufferView": 3,
      "componentType": 5126,
      "count": 164,
      "type": "VEC2",
      "max": [
        0.99613100290298462,
        0.99834799766540527
      ],
      "min": [
        0.27176898717880249,
        0.0049239997752010822
      ]
    },
    {
      "bufferView": 4,
      "componentType": 5125,
      "count": 276,
      "type": "SCALAR",
      "max": [
        163.0
      ],
      "min": [
        0.0
      ]
    }
  ],
  "asset": {
    "generator": "UnityGLTF (2019.1.4f1)",
    "version": "2.0"
  },
  "buffers": [
    {
      "uri": "SM_cupboard_04.bin",
      "byteLength": 8976
    }
  ],
  "bufferViews": [
    {
      "buffer": 0,
      "byteLength": 1968
    },
    {
      "buffer": 0,
      "byteOffset": 1968,
      "byteLength": 1968
    },
    {
      "buffer": 0,
      "byteOffset": 3936,
      "byteLength": 2624
    },
    {
      "buffer": 0,
      "byteOffset": 6560,
      "byteLength": 1312
    },
    {
      "buffer": 0,
      "byteOffset": 7872,
      "byteLength": 1104
    }
  ],
  "images": [
    {
      "uri": "../../11388_T_furniture.jpg",
      "name": "T_furniture"
    }
  ],
  "materials": [
    {
      "pbrMetallicRoughness": {
        "baseColorTexture": {
          "index": 0
        },
        "metallicFactor": 0.0,
        "roughnessFactor": 0.5
      },
      "name": "T_furniture"
    }
  ],
  "meshes": [
    {
      "primitives": [
        {
          "attributes": {
            "POSITION": 0,
            "NORMAL": 1,
            "TANGENT": 2,
            "TEXCOORD_0": 3
          },
          "indices": 4,
          "material": 0
        }
      ],
      "name": "SM_cupboard_04"
    }
  ],
  "nodes": [
    {
      "mesh": 0,
      "rotation": [
        0.0,
        0.0,
        0.0,
        -1.0
      ],
      "name": "SM_cupboard_04"
    }
  ],
  "samplers": [
    {
      "minFilter": 9729
    }
  ],
  "scene": 0,
  "scenes": [
    {
      "nodes": [
        0
      ],
      "name": "SM_cupboard_04"
    }
  ],
  "textures": [
    {
      "sampler": 0,
      "source": 0,
      "name": "T_furniture"
    }
  ]
}