{
    "asset": {
        "generator": "FBX2glTF v0.9.6",
        "version": "2.0"
    },
    "scene": 0,
    "buffers": [
        {
            "byteLength": 82792,
            "uri": "buffer.bin"
        }
    ],
    "bufferViews": [
        {
            "buffer": 0,
            "byteLength": 7080,
            "byteOffset": 0,
            "target": 34963
        },
        {
            "buffer": 0,
            "byteLength": 27552,
            "byteOffset": 7080,
            "target": 34962
        },
        {
            "buffer": 0,
            "byteLength": 27552,
            "byteOffset": 34632,
            "target": 34962
        },
        {
            "buffer": 0,
            "byteLength": 18368,
            "byteOffset": 62184,
            "target": 34962
        },
        {
            "buffer": 0,
            "byteLength": 192,
            "byteOffset": 80552,
            "target": 34963
        },
        {
            "buffer": 0,
            "byteLength": 768,
            "byteOffset": 80744,
            "target": 34962
        },
        {
            "buffer": 0,
            "byteLength": 768,
            "byteOffset": 81512,
            "target": 34962
        },
        {
            "buffer": 0,
            "byteLength": 512,
            "byteOffset": 82280,
            "target": 34962
        }
    ],
    "scenes": [
        {
            "name": "Root Scene",
            "nodes": [
                0
            ]
        }
    ],
    "accessors": [
        {
            "componentType": 5123,
            "type": "SCALAR",
            "count": 3540,
            "bufferView": 0,
            "byteOffset": 0
        },
        {
            "componentType": 5126,
            "type": "VEC3",
            "count": 2296,
            "bufferView": 1,
            "byteOffset": 0,
            "min": [
                -0.0526668168604374,
                0.0,
                -0.040494155138731
            ],
            "max": [
                0.0526668168604374,
                0.351810395717621,
                0.040494155138731
            ]
        },
        {
            "componentType": 5126,
            "type": "VEC3",
            "count": 2296,
            "bufferView": 2,
            "byteOffset": 0
        },
        {
            "componentType": 5126,
            "type": "VEC2",
            "count": 2296,
            "bufferView": 3,
            "byteOffset": 0
        },
        {
            "componentType": 5123,
            "type": "SCALAR",
            "count": 96,
            "bufferView": 4,
            "byteOffset": 0
        },
        {
            "componentType": 5126,
            "type": "VEC3",
            "count": 64,
            "bufferView": 5,
            "byteOffset": 0,
            "min": [
                -0.00570781715214252,
                0.198847398161888,
                -0.0314577482640743
            ],
            "max": [
                0.00570758804678917,
                0.285142362117767,
                0.0314577482640743
            ]
        },
        {
            "componentType": 5126,
            "type": "VEC3",
            "count": 64,
            "bufferView": 6,
            "byteOffset": 0
        },
        {
            "componentType": 5126,
            "type": "VEC2",
            "count": 64,
            "bufferView": 7,
            "byteOffset": 0
        }
    ],
    "images": [
        {
            "name": "Fantasy_Texture",
            "uri": "../Fantasy_Texture.png"
        }
    ],
    "samplers": [
        {}
    ],
  "textures": [
    {
      "sampler": 0,
      "source": 0,
      "name": "Fantasy_Texture"
    }
  ],
  "materials": [
    {
      "pbrMetallicRoughness": {
        "baseColorTexture": {
          "index": 0
        },
        "metallicFactor": 0.0,
        "roughnessFactor": 0.5
      },
      "name": "Fantasy_Texture"
    },
    {
      "pbrMetallicRoughness": {
        "metallicFactor": 0.0
      },
      "emissiveFactor": [
        0.0,
        0.0,
        0.0
      ],
      "name": "lambert1"
    }
  ],
    "meshes": [
        {
            "name": "SF_Bld_WitchesHut_01",
            "primitives": [
                {
                    "material": 0,
                    "mode": 4,
                    "attributes": {
                        "NORMAL": 2,
                        "POSITION": 1,
                        "TEXCOORD_0": 3
                    },
                    "indices": 0
                },
                {
                    "material": 1,
                    "mode": 4,
                    "attributes": {
                        "NORMAL": 6,
                        "POSITION": 5,
                        "TEXCOORD_0": 7
                    },
                    "indices": 4
                }
            ]
        }
    ],
    "nodes": [
        {
            "name": "RootNode",
            "translation": [
                0.0,
                0.0,
                0.0
            ],
            "rotation": [
                0.0,
                0.0,
                0.0,
                1.0
            ],
            "scale": [
                1.0,
                1.0,
                1.0
            ],
            "children": [
                1
            ]
        },
        {
            "name": "SF_Bld_WitchesHut_01",
            "translation": [
                0.0,
                0.0,
                0.0
            ],
            "rotation": [
                0.0,
                0.0,
                0.0,
                1.0
            ],
            "scale": [
                1.0,
                1.0,
                1.0
            ],
            "mesh": 0
        }
    ]
}