{
  "accessors": [
    {
      "bufferView": 0,
      "componentType": 5126,
      "count": 136,
      "type": "VEC3",
      "max": [
        0.46672508120536804,
        0.87530124187469482,
        0.34236279129981995
      ],
      "min": [
        -0.46672508120536804,
        0.020186278969049454,
        -0.34236279129981995
      ]
    },
    {
      "bufferView": 1,
      "componentType": 5126,
      "count": 136,
      "type": "VEC3",
      "max": [
        1.0,
        1.0,
        1.0
      ],
      "min": [
        -1.0,
        -1.0,
        -1.0
      ]
    },
    {
      "bufferView": 2,
      "componentType": 5126,
      "count": 136,
      "type": "VEC4",
      "max": [
        0.99999845027923584,
        0.99998962879180908,
        1.0,
        1.0
      ],
      "min": [
        -1.0,
        -0.2763667106628418,
        -1.0,
        -1.0
      ]
    },
    {
      "bufferView": 3,
      "componentType": 5126,
      "count": 136,
      "type": "VEC2",
      "max": [
        0.99613100290298462,
        0.997564971446991
      ],
      "min": [
        0.21212099492549896,
        0.23796099424362183
      ]
    },
    {
      "bufferView": 4,
      "componentType": 5125,
      "count": 204,
      "type": "SCALAR",
      "max": [
        135.0
      ],
      "min": [
        0.0
      ]
    }
  ],
  "asset": {
    "generator": "UnityGLTF (2019.1.4f1)",
    "version": "2.0"
  },
  "buffers": [
    {
      "uri": "SM_box_00.bin",
      "byteLength": 7344
    }
  ],
  "bufferViews": [
    {
      "buffer": 0,
      "byteLength": 1632
    },
    {
      "buffer": 0,
      "byteOffset": 1632,
      "byteLength": 1632
    },
    {
      "buffer": 0,
      "byteOffset": 3264,
      "byteLength": 2176
    },
    {
      "buffer": 0,
      "byteOffset": 5440,
      "byteLength": 1088
    },
    {
      "buffer": 0,
      "byteOffset": 6528,
      "byteLength": 816
    }
  ],
  "images": [
    {
      "uri": "../../11388_T_furniture.jpg",
      "name": "T_furniture"
    }
  ],
  "materials": [
    {
      "pbrMetallicRoughness": {
        "baseColorTexture": {
          "index": 0
        },
        "metallicFactor": 0.0,
        "roughnessFactor": 0.5
      },
      "name": "T_furniture"
    }
  ],
  "meshes": [
    {
      "primitives": [
        {
          "attributes": {
            "POSITION": 0,
            "NORMAL": 1,
            "TANGENT": 2,
            "TEXCOORD_0": 3
          },
          "indices": 4,
          "material": 0
        }
      ],
      "name": "SM_box_00"
    }
  ],
  "nodes": [
    {
      "mesh": 0,
      "rotation": [
        0.0,
        0.0,
        0.0,
        -1.0
      ],
      "scale": [
        0.578826845,
        0.578826845,
        0.578826845
      ],
      "name": "SM_box_00"
    }
  ],
  "samplers": [
    {
      "minFilter": 9729
    }
  ],
  "scene": 0,
  "scenes": [
    {
      "nodes": [
        0
      ],
      "name": "SM_box_00"
    }
  ],
  "textures": [
    {
      "sampler": 0,
      "source": 0,
      "name": "T_furniture"
    }
  ]
}