{
  "accessors": [
    {
      "bufferView": 0,
      "componentType": 5126,
      "count": 696,
      "type": "VEC3",
      "max": [
        9.8244075775146484,
        20.926568984985352,
        4.85585355758667
      ],
      "min": [
        -9.8244075775146484,
        -21.076274871826172,
        -0.078493215143680573
      ]
    },
    {
      "bufferView": 1,
      "componentType": 5126,
      "count": 696,
      "type": "VEC3",
      "max": [
        1.0,
        1.0,
        1.0
      ],
      "min": [
        -1.0,
        -1.0,
        -1.0
      ]
    },
    {
      "bufferView": 2,
      "componentType": 5126,
      "count": 696,
      "type": "VEC4",
      "max": [
        1.0,
        1.0,
        1.0,
        1.0
      ],
      "min": [
        -1.0,
        -0.99999988079071045,
        -1.0,
        -1.0
      ]
    },
    {
      "bufferView": 3,
      "componentType": 5126,
      "count": 696,
      "type": "VEC2",
      "max": [
        0.87437599897384644,
        0.87404823303222656
      ],
      "min": [
        0.75116938352584839,
        0.75065195560455322
      ]
    },
    {
      "bufferView": 4,
      "componentType": 5125,
      "count": 1494,
      "type": "SCALAR",
      "max": [
        695.0
      ],
      "min": [
        0.0
      ]
    }
  ],
  "asset": {
    "generator": "UnityGLTF (2019.1.4f1)",
    "version": "2.0"
  },
  "buffers": [
    {
      "uri": "Clock_01.bin",
      "byteLength": 39384
    }
  ],
  "bufferViews": [
    {
      "buffer": 0,
      "byteLength": 8352
    },
    {
      "buffer": 0,
      "byteOffset": 8352,
      "byteLength": 8352
    },
    {
      "buffer": 0,
      "byteOffset": 16704,
      "byteLength": 11136
    },
    {
      "buffer": 0,
      "byteOffset": 27840,
      "byteLength": 5568
    },
    {
      "buffer": 0,
      "byteOffset": 33408,
      "byteLength": 5976
    }
  ],
  "images": [
    {
      "uri": "../../10916_Farm_Interior.png",
      "name": "Farm_Interior"
    }
  ],
  "materials": [
    {
      "pbrMetallicRoughness": {
        "baseColorTexture": {
          "index": 0
        },
        "metallicFactor": 0.0,
        "roughnessFactor": 0.5
      },
      "name": "Farm_Interior 1"
    }
  ],
  "meshes": [
    {
      "primitives": [
        {
          "attributes": {
            "POSITION": 0,
            "NORMAL": 1,
            "TANGENT": 2,
            "TEXCOORD_0": 3
          },
          "indices": 4,
          "material": 0
        }
      ],
      "name": "Clock_01"
    }
  ],
  "nodes": [
    {
      "mesh": 0,
      "rotation": [
        2.18556941E-08,
        0.0,
        0.0,
        -1.0
      ],
      "translation": [
        1.68141222,
        0.07536602,
        1.49662066
      ],
      "name": "Clock_01"
    }
  ],
  "samplers": [
    {
      "minFilter": 9729
    }
  ],
  "scene": 0,
  "scenes": [
    {
      "nodes": [
        0
      ],
      "name": "Clock_01"
    }
  ],
  "textures": [
    {
      "sampler": 0,
      "source": 0,
      "name": "Farm_Interior"
    }
  ]
}